<svg version="1.1" id="Layer_1" xmlns="http://www.w3.org/2000/svg" xmlns:xlink="http://www.w3.org/1999/xlink" x="0px" y="0px"
	 width="100%" viewBox="0 0 1395 473" enable-background="new 0 0 1395 473" xml:space="preserve">
<path fill="#000000" opacity="1.000000" stroke="none" 
	d="
M1396.000000,249.000000 
	C1396.000000,323.991211 1396.000000,398.982422 1396.000000,473.980225 
	C931.063232,473.986816 466.126495,473.986816 1.094870,473.986816 
	C1.094870,316.415100 1.094870,158.830124 1.094870,1.122569 
	C465.999969,1.122569 931.000000,1.122569 1396.000000,1.122569 
	C1396.000000,22.088974 1396.000000,43.086533 1395.643066,64.842384 
	C1394.190918,61.452934 1393.105835,57.302483 1391.998657,53.157959 
	C1387.035278,34.579418 1376.057495,21.491753 1357.635498,14.911081 
	C1346.790405,11.037006 1335.913940,10.352365 1324.488281,11.829335 
	C1311.809326,13.468319 1301.446655,18.660778 1292.628784,27.769037 
	C1285.130981,35.513718 1280.888062,45.129517 1275.999512,55.384537 
	C1275.999512,44.307304 1276.019043,34.143921 1275.992065,23.980663 
	C1275.976196,18.005577 1274.017578,16.022099 1268.088379,16.009075 
	C1255.423828,15.981254 1242.759399,16.000483 1230.094849,16.000584 
	C1222.266235,16.000647 1220.000732,18.297199 1220.000732,26.246471 
	C1219.999878,97.734238 1220.000244,169.222000 1220.000244,240.709763 
	C1220.000244,241.043045 1219.998901,241.376312 1220.000488,241.709595 
	C1220.031372,248.331039 1222.626465,250.997757 1229.051514,250.998871 
	C1242.049316,251.001099 1255.047119,250.999527 1268.044922,250.999481 
	C1277.060791,250.999451 1279.997803,248.067322 1279.998657,239.032516 
	C1280.001831,201.705566 1279.940552,164.378464 1280.045532,127.051811 
	C1280.069092,118.639343 1280.061768,110.149750 1281.144653,101.835800 
	C1282.678589,90.058334 1286.009521,78.848160 1296.293091,71.185066 
	C1307.607544,62.753922 1322.909790,64.658310 1330.195190,76.481964 
	C1335.663452,85.356308 1336.763672,95.152588 1336.839722,104.878937 
	C1337.199585,150.868256 1336.996948,196.861938 1337.004883,242.854065 
	C1337.005859,248.173294 1339.796997,250.986038 1345.073853,250.994247 
	C1356.238647,251.011627 1367.409302,251.217209 1378.565674,250.910217 
	C1384.390259,250.749954 1390.189331,249.666489 1396.000000,249.000000 
M711.770447,461.003815 
	C713.363647,459.948608 715.095642,459.053345 716.526733,457.811371 
	C723.874023,451.434540 729.439270,443.738953 732.721069,434.561768 
	C734.189941,430.454376 732.321106,425.806702 728.962036,425.101624 
	C724.229370,424.108307 719.380066,423.669678 714.579590,423.001129 
	C710.083313,422.374847 707.823181,424.926971 705.950500,428.602295 
	C700.317993,439.656891 691.693909,446.758270 678.122253,448.012451 
	C675.963989,447.962555 673.694702,448.333588 671.664368,447.798401 
	C648.494934,441.690979 641.476318,422.193115 642.624817,401.000092 
	C643.595825,401.000092 644.577942,401.000092 645.560120,401.000092 
	C673.377991,401.000031 701.195801,401.009521 729.013672,400.992279 
	C734.989441,400.988586 737.349365,398.983002 736.897339,393.107391 
	C736.312683,385.508698 735.504639,377.854065 733.872864,370.425629 
	C731.213440,358.318817 726.143555,347.036041 717.404785,338.138794 
	C709.105164,329.688690 698.696411,324.400055 686.740540,323.090820 
	C681.534546,322.520691 676.221924,322.924164 670.074402,322.991577 
	C668.075439,323.001953 666.005432,322.672943 664.088318,323.074371 
	C641.062378,327.896149 626.109253,342.005981 618.020508,363.722931 
	C612.411682,378.781525 610.843140,394.229675 612.833374,410.294159 
	C614.266418,421.861481 617.259399,432.700867 623.012695,442.744263 
	C629.070679,453.319550 637.777588,460.959717 648.924866,466.083160 
	C662.631958,472.383087 676.956421,472.354431 691.136353,469.707031 
	C698.084961,468.409729 704.459900,464.039642 711.013489,461.015625 
	C711.013489,461.015625 711.058594,461.096283 711.770447,461.003815 
M357.261353,334.215607 
	C356.826813,335.438934 356.392303,336.662292 355.116821,337.991882 
	C353.241364,338.064697 351.281952,338.344849 352.216888,335.274994 
	C352.678619,333.758972 352.961700,332.125214 352.967285,330.543457 
	C353.021545,315.148468 352.849121,299.750916 353.083282,284.359314 
	C353.163177,279.109406 350.829712,276.763489 345.078583,276.012054 
	C341.414948,276.008148 337.749878,275.937073 334.088043,276.016479 
	C328.888153,276.129211 326.004028,279.094666 326.003540,284.245697 
	C325.998047,342.364105 326.020844,400.482513 325.954529,458.600830 
	C325.949982,462.591339 326.764832,465.831573 330.998596,466.925934 
	C337.179108,468.523438 341.949127,466.768372 343.940918,462.132141 
	C345.482910,458.542786 346.642914,454.789307 348.032013,450.944763 
	C367.938416,468.178436 373.807556,470.735748 391.829132,469.987823 
	C393.220795,469.658997 394.595856,469.179596 396.006622,469.024353 
	C412.394440,467.221008 423.778687,457.831787 432.017792,444.410706 
	C442.228058,427.778595 445.004150,409.185730 444.987640,389.313324 
	C444.696655,388.528137 444.405670,387.742950 444.008362,386.054871 
	C443.338501,380.400055 443.076447,374.660004 441.915588,369.107849 
	C439.337402,356.776428 434.324493,345.405487 425.581329,336.205322 
	C414.049316,324.070526 399.464630,319.753784 382.313324,321.012390 
	C381.528137,321.303375 380.742950,321.594360 379.130463,321.991577 
	C377.248383,322.328949 375.198761,322.299927 373.514557,323.070007 
	C367.669708,325.742523 361.155151,327.558319 357.261353,334.215607 
M1105.148315,12.012024 
	C1102.098755,11.730279 1099.049316,11.448534 1095.257812,11.012403 
	C1094.505371,11.063870 1093.752808,11.115339 1092.176636,11.011942 
	C1090.784302,11.063563 1089.392090,11.115185 1087.257812,11.012409 
	C1086.505371,11.063868 1085.752808,11.115326 1084.148071,11.011699 
	C1080.916138,11.345061 1077.642944,11.455687 1074.458984,12.047119 
	C1049.717285,16.643021 1030.066284,29.027822 1015.960876,50.099468 
	C1001.714722,71.381310 995.924438,95.316376 994.172363,120.337563 
	C993.460449,130.505249 994.640015,140.808075 995.003906,151.047806 
	C995.554871,166.549911 999.210815,181.405762 1005.066467,195.669373 
	C1012.382141,213.489410 1022.775696,229.219055 1038.930054,240.287262 
	C1046.551392,245.508926 1054.437256,250.615555 1064.717285,252.172546 
	C1083.336670,258.059937 1101.917725,257.271454 1120.251587,251.202423 
	C1130.855469,247.692261 1140.206543,241.954300 1149.013672,234.809845 
	C1160.340942,225.620926 1168.353516,214.089096 1174.595703,201.457031 
	C1181.295654,187.898392 1185.188232,173.339630 1187.278931,158.128204 
	C1189.342529,143.114578 1189.426270,128.219406 1187.811646,113.362640 
	C1186.212158,98.644485 1182.972900,84.139076 1176.993530,70.429047 
	C1169.550293,53.362904 1159.366211,38.509869 1144.016479,27.370913 
	C1132.532715,19.037512 1119.830322,14.337728 1105.148315,12.012024 
M80.202606,110.012154 
	C67.874146,113.205788 56.185646,117.526299 45.366199,124.706627 
	C31.939926,133.616974 23.310177,145.565033 17.905125,160.425659 
	C12.639503,174.902939 12.726053,189.789642 15.198770,204.507797 
	C17.971622,221.012451 26.008718,234.636597 40.485325,244.214767 
	C56.886494,255.066284 75.140060,254.925995 93.396843,253.565323 
	C101.398361,252.968948 109.937752,250.943024 116.909904,247.140442 
	C128.324402,240.915054 138.657990,232.707764 148.909439,225.703979 
	C153.382935,230.879745 158.670227,236.997055 164.194107,243.737457 
	C166.431122,245.961411 168.611115,248.246567 170.918442,250.395020 
	C174.417084,253.652786 179.810486,254.023819 183.315659,251.083878 
	C188.713470,246.556442 193.966736,241.856522 199.276077,237.223755 
	C204.584808,232.591522 209.577942,227.514984 215.299225,223.466797 
	C219.212006,220.698303 219.725128,217.687637 218.337784,213.921814 
	C217.419952,211.430481 216.011429,209.000992 214.348770,206.922913 
	C205.568085,195.948425 200.879700,183.953079 200.786285,169.460571 
	C200.559738,134.315186 203.133469,99.092003 198.949249,64.029442 
	C197.113815,48.649067 189.863297,35.744316 177.677628,26.466389 
	C162.345398,14.792725 144.124344,10.017527 125.173988,9.210493 
	C113.900467,8.730392 102.453506,9.691662 91.238060,11.169909 
	C78.300148,12.875186 65.984138,17.120922 54.732365,24.020729 
	C36.641682,35.114281 26.080162,51.523705 21.101301,71.810394 
	C19.326626,79.041412 21.332279,82.448105 28.642885,84.089767 
	C33.370953,85.151505 38.274555,85.478683 43.115623,85.979042 
	C50.436378,86.735687 57.818691,87.038528 65.086548,88.124939 
	C72.243210,89.194740 74.989464,87.333084 77.155731,80.700516 
	C78.811836,75.629913 80.993027,70.234474 84.468376,66.350540 
	C93.676155,56.060215 105.983421,53.253872 119.035599,56.226566 
	C127.569138,58.170120 135.241577,62.812881 137.029419,72.561714 
	C138.780518,82.110153 139.792084,91.794212 141.146423,101.549683 
	C128.067749,103.153023 116.441063,104.426018 104.863632,106.050133 
	C96.873962,107.170944 88.952408,108.777359 80.202606,110.012154 
M478.001312,242.957977 
	C480.346619,250.462708 481.046478,250.998795 488.519226,250.999237 
	C501.849854,251.000031 515.180481,251.006882 528.511108,250.996384 
	C535.336060,250.991013 537.993713,248.340836 537.996216,241.525742 
	C538.004700,218.197159 538.118896,194.867828 537.971985,171.540161 
	C537.742737,135.130600 537.791016,98.709427 536.776978,62.319492 
	C536.363953,47.496258 529.567993,34.877316 517.763733,25.182623 
	C499.904205,10.514787 479.551971,7.954184 458.119751,13.574689 
	C438.980499,18.593864 425.955872,31.391647 418.061615,50.562313 
	C407.390900,25.268295 389.911438,10.601698 362.056885,10.994085 
	C334.845062,11.377419 316.614075,24.739605 305.999512,51.087078 
	C305.999512,41.039722 306.057312,32.588814 305.978210,24.139191 
	C305.929474,18.929716 302.911682,16.009193 297.797028,16.004509 
	C284.799683,15.992609 271.802307,15.996852 258.804962,16.001993 
	C251.679626,16.004812 249.016953,18.547239 249.014664,25.670839 
	C248.991455,97.822815 248.995804,169.974808 249.009018,242.126785 
	C249.010132,248.211243 251.875290,250.983780 258.090332,250.993240 
	C271.420929,251.013535 284.751556,250.999664 298.082184,250.999435 
	C306.841980,250.999283 308.998016,248.821289 308.998505,239.942139 
	C309.000824,199.283752 308.886261,158.624786 309.090302,117.967415 
	C309.133789,109.307686 309.865692,100.586479 311.103577,92.012444 
	C313.109497,78.118767 321.998535,65.420456 340.007080,66.790245 
	C348.588989,67.443016 357.481445,72.911385 359.782562,80.874176 
	C362.007935,88.574745 363.755249,96.721619 363.819489,104.687714 
	C364.190491,150.675369 363.998138,196.667542 364.003601,242.658173 
	C364.004272,248.276031 366.736816,250.992783 372.377625,250.996475 
	C386.374786,251.005630 400.371918,251.003510 414.369080,250.997726 
	C420.365326,250.995255 422.996765,248.379959 422.997437,242.411728 
	C423.001495,205.585892 422.729340,168.757050 423.136902,131.935730 
	C423.292725,117.857338 424.496490,103.736542 426.154755,89.745544 
	C427.530396,78.138916 438.924561,67.750275 451.251373,67.075829 
	C468.590118,66.127167 477.892334,76.264877 477.944916,93.087242 
	C478.100067,142.743317 478.000458,192.400192 478.001312,242.957977 
M583.999390,64.582573 
	C583.005005,68.133858 581.712280,71.633423 581.085571,75.248451 
	C580.128296,80.770470 585.030212,84.459389 592.905640,85.046989 
	C603.836853,85.862587 614.769897,86.786934 625.651733,88.086937 
	C633.757080,89.055229 635.946289,87.662018 638.048462,79.496101 
	C640.294434,70.771851 645.342896,64.249390 653.452820,59.853256 
	C661.856812,55.297668 670.658386,53.907772 679.699341,56.159866 
	C686.617493,57.883148 692.477600,61.344715 696.204529,68.396477 
	C701.923035,79.216484 699.170837,90.509972 700.100281,101.700630 
	C691.279907,102.839149 682.900513,103.846031 674.544250,105.017563 
	C663.136597,106.616890 651.601379,107.686256 640.383911,110.170677 
	C624.706055,113.642944 609.908020,119.655350 597.840271,130.729141 
	C581.884338,145.370789 574.425964,164.082138 574.234924,185.367844 
	C574.154602,194.325958 575.941528,203.486786 578.134949,212.240921 
	C582.805847,230.882309 595.167603,242.942078 612.775085,250.033844 
	C624.230652,254.647842 636.210266,254.116226 648.155579,253.980804 
	C659.305786,253.854401 670.362671,251.955673 679.869934,246.305344 
	C690.356140,240.073242 699.851624,232.174377 708.934998,225.611130 
	C716.143127,233.396378 723.995056,241.945541 731.932678,250.414352 
	C734.871094,253.549347 738.556274,254.066422 742.146606,251.896423 
	C745.458923,249.894485 748.527527,247.435577 751.500305,244.936325 
	C758.769958,238.824692 765.799866,232.423523 773.154541,226.418518 
	C781.236450,219.819794 781.942139,216.240356 775.599976,208.142426 
	C765.547546,195.307098 760.560059,181.031433 760.872559,164.517899 
	C761.354919,139.027252 761.174438,113.518906 760.907776,88.021912 
	C760.810181,78.689842 760.498352,69.215103 758.813232,60.076691 
	C755.896545,44.258591 747.194275,31.874071 733.516968,23.125338 
	C719.255737,14.003102 703.235168,10.422606 686.757080,9.153086 
	C673.311096,8.117166 659.810181,9.054318 646.547974,12.003792 
	C629.195496,15.862917 613.486694,22.886698 600.781921,35.716595 
	C592.890137,43.686111 587.796753,53.323517 583.999390,64.582573 
M852.520081,121.982483 
	C847.995361,128.461899 843.490417,134.955246 838.941528,141.417618 
	C830.850708,152.911728 822.475220,164.216797 814.736633,175.942657 
	C810.900269,181.755692 806.213074,188.085419 805.422058,194.607254 
	C803.734497,208.520416 804.063171,222.712280 804.111328,236.788086 
	C804.137268,244.360184 809.946960,247.415024 816.697876,244.017120 
	C835.790894,234.407043 856.093079,228.723755 877.293823,227.175125 
	C894.491821,225.918884 911.815552,226.825531 928.455933,231.963974 
	C939.286133,235.308212 949.888733,239.495041 960.358215,243.867371 
	C968.370667,247.213531 973.999207,243.974136 973.999512,235.242554 
	C973.999878,224.578659 973.974121,213.914673 974.010010,203.250900 
	C974.028931,197.639603 971.397522,193.642410 966.633301,190.978195 
	C946.596069,179.773193 924.912170,174.761139 902.126831,174.023514 
	C897.238342,173.865265 892.340332,174.000412 887.155640,174.000412 
	C888.182251,172.287506 888.835449,171.022781 889.647034,169.869461 
	C904.422546,148.873413 919.210205,127.885872 934.010315,106.907127 
	C942.390198,95.028839 950.752136,83.137421 959.206421,71.312210 
	C966.014160,61.790066 972.037903,52.173790 970.125000,39.523647 
	C969.361389,34.473778 970.018616,29.211874 969.994629,24.046661 
	C969.965820,17.852512 967.199890,15.010728 961.084351,15.008748 
	C914.763062,14.993754 868.441711,14.996008 822.120422,15.006036 
	C816.023315,15.007355 812.187805,18.379602 812.056641,24.424698 
	C811.847046,34.084309 811.464233,43.791500 812.175964,53.402954 
	C812.711731,60.639099 814.632874,63.148491 821.990662,63.080250 
	C845.475586,62.862431 868.963745,62.999462 893.334595,62.999462 
	C879.666138,82.770020 866.316467,102.079483 852.520081,121.982483 
M4.036961,331.276672 
	C4.350336,331.849426 4.786534,332.387573 4.959004,333.000000 
	C8.655628,346.126343 12.321424,359.261353 15.995859,372.393951 
	C20.663958,389.078003 25.322943,405.764648 30.007370,422.444122 
	C33.996029,436.646240 37.898380,450.874512 42.099018,465.013916 
	C43.213989,468.766937 45.617603,471.516510 50.378548,471.071594 
	C54.176979,470.716583 58.062653,470.711212 61.859585,471.074036 
	C66.460365,471.513672 68.837494,468.776123 69.799210,465.252014 
	C74.069351,449.604523 77.966125,433.855103 81.999001,418.142822 
	C85.402924,404.880981 88.808311,391.619537 92.482269,377.309265 
	C100.864510,407.118652 108.910233,435.830872 117.037315,464.520020 
	C118.186371,468.576294 120.375259,471.487213 125.370605,471.060608 
	C129.009079,470.749847 132.728592,470.688995 136.352432,471.075256 
	C141.368225,471.609924 143.527191,468.812988 144.678787,464.715057 
	C148.499924,451.117584 152.263596,437.503510 155.970139,423.874268 
	C164.223038,393.527557 172.411880,363.163391 180.667236,332.817352 
	C182.185608,327.235901 180.550674,324.240112 175.087570,323.059479 
	C162.770599,320.397644 156.871292,324.114166 154.013870,336.340088 
	C153.794067,337.280609 153.645126,338.239807 153.385605,339.168610 
	C147.255737,361.106445 141.144547,383.049622 134.950012,404.969208 
	C133.808243,409.009399 132.321045,412.951996 130.753098,417.660980 
	C127.691895,406.932770 124.904510,397.216827 122.148026,387.492126 
	C117.423149,370.823059 112.595741,354.181763 108.040436,337.466370 
	C104.007698,322.668518 105.120125,322.742645 89.594299,323.000305 
	C84.408852,323.086334 81.262238,325.662201 79.988678,330.578278 
	C77.171013,341.454773 74.254059,352.305511 71.392853,363.170746 
	C66.782394,380.678711 62.184261,398.189941 57.455368,416.177338 
	C56.856655,415.049469 56.260475,414.289795 56.025635,413.431274 
	C48.661289,386.508392 41.323410,359.578278 34.007172,332.642273 
	C32.936039,328.698669 32.057236,324.250000 27.150475,323.793945 
	C21.156351,323.236755 15.029773,323.044769 9.065529,323.680450 
	C6.154656,323.990723 3.473608,326.529907 4.036961,331.276672 
M255.248779,470.999664 
	C256.990387,470.668213 258.725189,470.294922 260.474609,470.011749 
	C281.522888,466.604675 295.935852,454.852081 304.184540,435.318176 
	C306.597565,429.603760 305.036377,426.465485 298.921753,424.980316 
	C295.958801,424.260651 292.996277,423.446381 289.984283,423.039337 
	C281.653809,421.913483 280.013336,423.530609 277.080505,429.464844 
	C275.880157,431.893585 274.552338,434.342834 272.843750,436.422241 
	C265.693848,445.123901 256.093201,449.582550 245.202591,447.776642 
	C222.028137,443.933746 212.886627,422.888458 214.616440,400.999573 
	C216.246719,400.999573 217.894211,400.999573 219.541718,400.999573 
	C246.699554,400.999542 273.857391,401.009613 301.015228,400.991760 
	C307.077911,400.987793 310.102570,396.981262 308.576202,391.124969 
	C308.331696,390.186981 308.016632,389.220642 308.026306,388.270386 
	C308.133423,377.745636 305.892212,367.589508 301.866547,358.030396 
	C295.221924,342.252350 284.550751,330.184692 267.545410,325.032196 
	C257.767334,322.069550 247.857986,321.210266 237.636337,322.911346 
	C227.249313,324.639923 217.713013,328.149780 209.675446,334.921051 
	C193.177368,348.819824 185.977493,367.509644 184.152527,388.302246 
	C182.817581,403.511566 184.291016,418.708893 190.077850,433.061249 
	C197.035431,450.317200 209.157776,462.452728 226.982712,468.505554 
	C235.880173,471.526886 245.112350,471.046661 255.248779,470.999664 
M1148.999512,360.546875 
	C1146.666626,369.213318 1143.096680,377.767456 1142.296997,386.573151 
	C1141.158936,399.106201 1141.474976,411.822205 1144.945190,424.246124 
	C1150.131836,442.815521 1160.215088,457.679260 1177.940918,465.826263 
	C1193.569824,473.009491 1210.067871,473.081482 1226.548096,468.082794 
	C1244.116333,462.754120 1255.861572,451.254944 1262.262451,434.220123 
	C1264.281128,428.847809 1262.649048,426.252533 1257.165771,424.995819 
	C1254.508545,424.386719 1251.873779,423.677216 1249.213013,423.084930 
	C1241.999023,421.479034 1238.534424,422.967651 1235.214478,429.370026 
	C1223.616455,451.736633 1198.744507,453.940338 1182.759521,437.057312 
	C1173.432983,427.206757 1171.739746,414.463959 1172.033936,401.000061 
	C1174.048462,401.000061 1175.676147,401.000061 1177.303833,401.000061 
	C1204.464966,401.000000 1231.625977,401.006592 1258.787109,400.994568 
	C1264.722534,400.991943 1265.845093,399.740143 1266.020630,393.881775 
	C1266.519287,377.245972 1262.779663,361.703308 1254.023193,347.505676 
	C1248.253052,338.150269 1240.560425,330.917816 1230.076904,326.972565 
	C1219.616211,323.035950 1209.069946,321.269623 1197.730713,322.805481 
	C1188.046875,324.117157 1179.170166,326.924744 1171.231689,332.365021 
	C1161.179810,339.253845 1154.124390,348.752594 1148.999512,360.546875 
M1349.927368,412.407776 
	C1350.359131,412.601624 1350.775269,412.848785 1351.225098,412.981628 
	C1365.973755,417.337494 1367.717407,432.840363 1358.450195,441.160675 
	C1351.545044,447.360382 1343.393066,448.389008 1334.799438,447.963013 
	C1320.198608,447.239288 1307.955811,442.624207 1301.893555,427.735077 
	C1300.352295,423.949829 1296.677490,422.499847 1292.737061,423.115875 
	C1288.631348,423.757782 1284.615356,424.990051 1280.572998,426.015411 
	C1277.407715,426.818298 1274.498169,430.960876 1275.294434,433.690674 
	C1279.041748,446.536926 1286.577393,456.590118 1298.477051,462.742920 
	C1317.896240,472.783905 1338.380493,473.605438 1359.161377,467.958405 
	C1380.525024,462.153107 1390.650391,450.413483 1392.818237,430.992889 
	C1394.951172,411.885559 1384.870361,392.674286 1364.018433,387.112152 
	C1350.197998,383.425659 1336.039062,381.011047 1322.038818,377.994232 
	C1314.205933,376.306335 1308.628052,370.658661 1308.000610,363.880310 
	C1307.374390,357.117798 1311.628784,350.743866 1318.863403,347.616760 
	C1333.397949,341.334229 1352.713379,346.209412 1359.773438,361.410614 
	C1361.381470,364.872986 1364.066772,366.440613 1367.587036,365.919922 
	C1372.017090,365.264679 1376.423218,364.241669 1380.726440,362.988251 
	C1385.874756,361.488678 1387.705811,357.953979 1385.625854,353.173859 
	C1381.139282,342.863037 1374.848145,333.687225 1364.227417,329.139801 
	C1344.109863,320.526276 1323.601685,319.943573 1303.169189,328.397278 
	C1280.130737,337.929169 1275.005615,363.568909 1283.461548,382.820770 
	C1288.739746,394.838135 1299.372192,400.788574 1311.434082,403.879028 
	C1323.897827,407.072571 1336.596558,409.349365 1349.927368,412.407776 
M556.855652,412.324982 
	C558.397583,413.186768 559.854858,414.287903 561.496338,414.867981 
	C567.865601,417.118835 570.734009,422.294861 570.787048,428.266327 
	C570.844788,434.761047 567.939636,440.299408 561.702393,443.794525 
	C546.587219,452.264496 515.960632,449.021027 508.135620,427.553223 
	C506.902740,424.170776 504.187042,422.602875 500.836365,423.087433 
	C496.239014,423.752258 491.672913,424.815613 487.194733,426.069946 
	C482.912994,427.269348 480.501648,431.120087 482.192841,435.138702 
	C484.538239,440.711792 487.039246,446.557800 490.877350,451.101105 
	C502.613373,464.993591 518.592712,470.444519 536.236572,470.847107 
	C545.205261,471.051788 554.401367,470.586853 563.151855,468.771881 
	C574.891357,466.336945 585.043152,460.605713 592.360291,450.350342 
	C598.567688,441.650330 599.404175,432.066803 599.011658,421.995636 
	C598.670837,413.247253 595.319641,405.789032 589.708557,399.183258 
	C580.557312,388.409790 567.809509,385.513153 554.837097,382.983551 
	C545.035217,381.072174 535.226379,379.166412 525.495422,376.932495 
	C519.851990,375.636963 515.812500,371.953918 515.111389,366.073059 
	C514.337708,359.584412 515.265991,353.817383 521.725159,349.496216 
	C534.185913,341.159851 558.261719,344.175690 565.610168,360.121063 
	C567.406799,364.019684 570.381958,366.607330 574.827576,365.911865 
	C579.575867,365.168976 584.326904,364.063507 588.869446,362.510162 
	C592.251831,361.353516 593.740356,358.787170 592.428406,354.795776 
	C587.603333,340.116150 577.539307,330.714996 563.147644,326.065125 
	C548.155396,321.221161 532.664124,321.185577 517.667236,325.293060 
	C491.420319,332.481720 482.175659,352.926727 487.372467,376.323822 
	C490.498596,390.398315 501.251678,398.938751 514.637024,402.799133 
	C528.213501,406.714600 542.255981,409.014404 556.855652,412.324982 
M1062.699707,324.001862 
	C1056.470947,326.826019 1049.816528,328.982239 1044.107422,332.621643 
	C1034.054199,339.030396 1028.464355,349.142822 1023.978088,359.930145 
	C1018.702026,372.616364 1017.623840,386.035400 1017.139343,399.484711 
	C1016.954468,404.615540 1018.349182,409.800598 1018.994995,414.964569 
	C1020.601135,427.807617 1025.223511,439.370026 1032.498291,450.152985 
	C1047.039185,471.706085 1078.699829,476.147949 1099.391846,466.197388 
	C1116.728149,457.860535 1125.560791,443.157776 1129.911377,425.274780 
	C1131.566528,418.470886 1130.190430,416.366516 1124.907715,414.404785 
	C1114.266479,410.453156 1105.420166,414.632690 1102.018799,425.233795 
	C1101.627930,426.452393 1101.463257,427.758423 1100.962280,428.924530 
	C1096.424072,439.489166 1088.870728,446.742828 1077.166504,447.834686 
	C1069.384399,448.560669 1059.630859,443.811432 1054.500366,433.989471 
	C1049.966431,425.309631 1047.777954,416.108704 1046.781372,406.262573 
	C1044.923950,387.910583 1046.530273,370.734467 1057.906250,355.377197 
	C1065.522705,345.095001 1081.502686,343.185303 1091.125000,350.454956 
	C1098.596680,356.099792 1102.044067,363.783936 1103.897095,372.389496 
	C1104.883667,376.971069 1107.713257,378.575287 1111.724731,378.952332 
	C1114.366821,379.200684 1117.057251,378.883331 1119.715698,379.020081 
	C1131.445068,379.623444 1131.109741,374.243500 1129.486450,366.114624 
	C1126.942139,353.375214 1120.705078,342.472687 1110.559082,334.093872 
	C1096.666870,322.621033 1080.573120,321.168762 1062.699707,324.001862 
M876.000610,440.503265 
	C878.670044,448.223450 881.355164,455.938263 884.004028,463.665527 
	C886.174072,469.996185 887.538330,470.997131 894.222900,470.999725 
	C898.222351,471.001312 902.221863,471.000275 906.221313,470.999939 
	C913.722473,470.999268 914.651672,470.317169 917.012695,463.221039 
	C922.983704,445.275208 929.034851,427.355743 934.927185,409.384155 
	C943.467163,383.337006 951.983704,357.281067 960.222107,331.138092 
	C960.966675,328.775269 960.549744,324.217651 959.064636,323.310211 
	C953.772278,320.076477 947.715027,320.494934 941.614380,321.762451 
	C936.407166,322.844330 934.993042,326.088959 933.551941,330.689911 
	C923.409607,363.071014 912.898438,395.336548 902.497192,427.664001 
	C902.071228,426.975769 901.488220,426.348816 901.255432,425.611328 
	C895.802368,408.337036 890.474670,391.022705 884.938232,373.775330 
	C880.234009,359.120819 875.116516,344.596893 870.567261,329.895935 
	C869.103455,325.165649 866.479187,321.896759 861.845215,321.493500 
	C856.181396,321.000671 850.263184,320.879150 844.737061,321.994598 
	C837.663513,323.422394 837.103699,325.295563 839.329285,331.753967 
	C843.558655,344.026947 847.829407,356.286011 851.993347,368.581177 
	C860.016296,392.270538 867.976868,415.981049 876.000610,440.503265 
M799.436218,326.952606 
	C790.797119,329.867767 785.581604,336.816437 779.999573,344.165802 
	C779.999573,341.236603 780.001587,339.071838 779.999207,336.907074 
	C779.991943,330.415588 778.190369,327.861633 771.823425,327.141327 
	C768.162415,326.727142 764.362915,327.693085 760.618225,327.826752 
	C755.080566,328.024384 753.992859,331.566681 753.994019,336.128479 
	C754.004883,378.436615 753.996216,420.744751 754.006287,463.052887 
	C754.007446,467.850220 756.959351,470.846802 761.890137,470.980316 
	C765.551941,471.079437 769.218628,471.015198 772.883057,470.996582 
	C779.282532,470.964081 781.992676,468.201263 781.995605,461.659943 
	C782.005920,438.673645 781.939697,415.686981 782.062805,392.701355 
	C782.081787,389.163025 782.498779,385.499329 783.488464,382.114929 
	C788.792603,363.975739 798.544556,350.772827 819.512146,349.864075 
	C823.359192,349.697357 825.858459,346.694183 825.975037,342.521454 
	C826.086731,338.526947 826.617798,334.390320 825.776245,330.578522 
	C825.238525,328.143219 822.685730,324.478882 820.786499,324.318115 
	C813.859924,323.731934 806.665222,322.989929 799.436218,326.952606 
M972.000427,439.500000 
	C972.000488,447.997406 971.939636,456.495422 972.024536,464.991974 
	C972.071716,469.707581 974.227051,471.883362 978.883911,471.975189 
	C984.213501,472.080261 989.546875,472.014709 994.878479,471.994598 
	C998.861816,471.979584 1000.982605,469.931458 1000.984619,465.965820 
	C1001.007751,419.646698 1001.009460,373.327545 1000.981445,327.008423 
	C1000.979065,323.050323 998.841431,321.010376 994.852600,321.002563 
	C990.187378,320.993469 985.522095,320.996002 980.856873,321.001038 
	C973.671082,321.008820 972.001770,322.708466 972.001343,330.033264 
	C971.999268,366.188843 972.000427,402.344421 972.000427,439.500000 
M989.071899,269.023743 
	C986.349426,269.356567 983.490051,269.268677 980.930298,270.101654 
	C973.458862,272.533051 967.732971,280.994720 969.098267,288.183197 
	C970.739807,296.826019 975.522949,302.619385 983.905945,303.961548 
	C992.009888,305.259033 1000.609375,300.135986 1003.128601,291.717896 
	C1006.191101,281.484192 1001.534363,273.356720 989.071899,269.023743 
z"/>
<path fill="#FFFFFF" opacity="1.000000" stroke="none" 
	d="
M1396.000000,248.531342 
	C1390.189331,249.666489 1384.390259,250.749954 1378.565674,250.910217 
	C1367.409302,251.217209 1356.238647,251.011627 1345.073853,250.994247 
	C1339.796997,250.986038 1337.005859,248.173294 1337.004883,242.854065 
	C1336.996948,196.861938 1337.199585,150.868256 1336.839722,104.878937 
	C1336.763672,95.152588 1335.663452,85.356308 1330.195190,76.481964 
	C1322.909790,64.658310 1307.607544,62.753922 1296.293091,71.185066 
	C1286.009521,78.848160 1282.678589,90.058334 1281.144653,101.835800 
	C1280.061768,110.149750 1280.069092,118.639343 1280.045532,127.051811 
	C1279.940552,164.378464 1280.001831,201.705566 1279.998657,239.032516 
	C1279.997803,248.067322 1277.060791,250.999451 1268.044922,250.999481 
	C1255.047119,250.999527 1242.049316,251.001099 1229.051514,250.998871 
	C1222.626465,250.997757 1220.031372,248.331039 1220.000488,241.709595 
	C1219.998901,241.376312 1220.000244,241.043045 1220.000244,240.709763 
	C1220.000244,169.222000 1219.999878,97.734238 1220.000732,26.246471 
	C1220.000732,18.297199 1222.266235,16.000647 1230.094849,16.000584 
	C1242.759399,16.000483 1255.423828,15.981254 1268.088379,16.009075 
	C1274.017578,16.022099 1275.976196,18.005577 1275.992065,23.980663 
	C1276.019043,34.143921 1275.999512,44.307304 1275.999512,55.384537 
	C1280.888062,45.129517 1285.130981,35.513718 1292.628784,27.769037 
	C1301.446655,18.660778 1311.809326,13.468319 1324.488281,11.829335 
	C1335.913940,10.352365 1346.790405,11.037006 1357.635498,14.911081 
	C1376.057495,21.491753 1387.035278,34.579418 1391.998657,53.157959 
	C1393.105835,57.302483 1394.190918,61.452934 1395.643066,65.300339 
	C1396.000000,126.020897 1396.000000,187.041794 1396.000000,248.531342 
z"/>
<path fill="#FFFFFF" opacity="1.000000" stroke="none" 
	d="
M478.000916,242.507355 
	C478.000458,192.400192 478.100067,142.743317 477.944916,93.087242 
	C477.892334,76.264877 468.590118,66.127167 451.251373,67.075829 
	C438.924561,67.750275 427.530396,78.138916 426.154755,89.745544 
	C424.496490,103.736542 423.292725,117.857338 423.136902,131.935730 
	C422.729340,168.757050 423.001495,205.585892 422.997437,242.411728 
	C422.996765,248.379959 420.365326,250.995255 414.369080,250.997726 
	C400.371918,251.003510 386.374786,251.005630 372.377625,250.996475 
	C366.736816,250.992783 364.004272,248.276031 364.003601,242.658173 
	C363.998138,196.667542 364.190491,150.675369 363.819489,104.687714 
	C363.755249,96.721619 362.007935,88.574745 359.782562,80.874176 
	C357.481445,72.911385 348.588989,67.443016 340.007080,66.790245 
	C321.998535,65.420456 313.109497,78.118767 311.103577,92.012444 
	C309.865692,100.586479 309.133789,109.307686 309.090302,117.967415 
	C308.886261,158.624786 309.000824,199.283752 308.998505,239.942139 
	C308.998016,248.821289 306.841980,250.999283 298.082184,250.999435 
	C284.751556,250.999664 271.420929,251.013535 258.090332,250.993240 
	C251.875290,250.983780 249.010132,248.211243 249.009018,242.126785 
	C248.995804,169.974808 248.991455,97.822815 249.014664,25.670839 
	C249.016953,18.547239 251.679626,16.004812 258.804962,16.001993 
	C271.802307,15.996852 284.799683,15.992609 297.797028,16.004509 
	C302.911682,16.009193 305.929474,18.929716 305.978210,24.139191 
	C306.057312,32.588814 305.999512,41.039722 305.999512,51.087078 
	C316.614075,24.739605 334.845062,11.377419 362.056885,10.994085 
	C389.911438,10.601698 407.390900,25.268295 418.061615,50.562313 
	C425.955872,31.391647 438.980499,18.593864 458.119751,13.574689 
	C479.551971,7.954184 499.904205,10.514787 517.763733,25.182623 
	C529.567993,34.877316 536.363953,47.496258 536.776978,62.319492 
	C537.791016,98.709427 537.742737,135.130600 537.971985,171.540161 
	C538.118896,194.867828 538.004700,218.197159 537.996216,241.525742 
	C537.993713,248.340836 535.336060,250.991013 528.511108,250.996384 
	C515.180481,251.006882 501.849854,251.000031 488.519226,250.999237 
	C481.046478,250.998795 480.346619,250.462708 478.000916,242.507355 
z"/>
<path fill="#FFFFFF" opacity="1.000000" stroke="none" 
	d="
M584.015747,64.169510 
	C587.796753,53.323517 592.890137,43.686111 600.781921,35.716595 
	C613.486694,22.886698 629.195496,15.862917 646.547974,12.003792 
	C659.810181,9.054318 673.311096,8.117166 686.757080,9.153086 
	C703.235168,10.422606 719.255737,14.003102 733.516968,23.125338 
	C747.194275,31.874071 755.896545,44.258591 758.813232,60.076691 
	C760.498352,69.215103 760.810181,78.689842 760.907776,88.021912 
	C761.174438,113.518906 761.354919,139.027252 760.872559,164.517899 
	C760.560059,181.031433 765.547546,195.307098 775.599976,208.142426 
	C781.942139,216.240356 781.236450,219.819794 773.154541,226.418518 
	C765.799866,232.423523 758.769958,238.824692 751.500305,244.936325 
	C748.527527,247.435577 745.458923,249.894485 742.146606,251.896423 
	C738.556274,254.066422 734.871094,253.549347 731.932678,250.414352 
	C723.995056,241.945541 716.143127,233.396378 708.934998,225.611130 
	C699.851624,232.174377 690.356140,240.073242 679.869934,246.305344 
	C670.362671,251.955673 659.305786,253.854401 648.155579,253.980804 
	C636.210266,254.116226 624.230652,254.647842 612.775085,250.033844 
	C595.167603,242.942078 582.805847,230.882309 578.134949,212.240921 
	C575.941528,203.486786 574.154602,194.325958 574.234924,185.367844 
	C574.425964,164.082138 581.884338,145.370789 597.840271,130.729141 
	C609.908020,119.655350 624.706055,113.642944 640.383911,110.170677 
	C651.601379,107.686256 663.136597,106.616890 674.544250,105.017563 
	C682.900513,103.846031 691.279907,102.839149 700.100281,101.700630 
	C699.170837,90.509972 701.923035,79.216484 696.204529,68.396477 
	C692.477600,61.344715 686.617493,57.883148 679.699341,56.159866 
	C670.658386,53.907772 661.856812,55.297668 653.452820,59.853256 
	C645.342896,64.249390 640.294434,70.771851 638.048462,79.496101 
	C635.946289,87.662018 633.757080,89.055229 625.651733,88.086937 
	C614.769897,86.786934 603.836853,85.862587 592.905640,85.046989 
	C585.030212,84.459389 580.128296,80.770470 581.085571,75.248451 
	C581.712280,71.633423 583.005005,68.133858 584.015747,64.169510 
M663.602722,141.537445 
	C658.309753,141.617401 653.460022,142.543839 650.814209,148.712234 
	C650.153931,149.141220 649.493591,149.570221 648.099915,150.021271 
	C647.414307,151.052017 646.728638,152.082748 645.929016,153.585175 
	C645.743225,153.890533 645.471680,154.042877 644.352722,154.031387 
	C642.203125,157.310730 639.350037,160.332657 638.037842,163.918472 
	C634.330200,174.050537 634.792175,184.714813 637.707947,194.750641 
	C640.112244,203.025757 645.620667,209.867279 655.096130,211.403366 
	C657.273560,211.756348 659.692566,210.618484 662.876587,210.012390 
	C665.432068,209.699783 668.063660,209.675735 670.530212,209.025742 
	C682.656799,205.830109 689.854004,196.988083 694.805359,186.318832 
	C702.099365,170.601669 699.785217,153.760757 699.939941,136.999908 
	C698.639343,136.999908 697.813904,136.894806 697.023071,137.015717 
	C686.026855,138.696899 675.035461,140.409042 663.602722,141.537445 
z"/>
<path fill="#FFFFFF" opacity="1.000000" stroke="none" 
	d="
M81.000404,110.166756 
	C88.952408,108.777359 96.873962,107.170944 104.863632,106.050133 
	C116.441063,104.426018 128.067749,103.153023 141.146423,101.549683 
	C139.792084,91.794212 138.780518,82.110153 137.029419,72.561714 
	C135.241577,62.812881 127.569138,58.170120 119.035599,56.226566 
	C105.983421,53.253872 93.676155,56.060215 84.468376,66.350540 
	C80.993027,70.234474 78.811836,75.629913 77.155731,80.700516 
	C74.989464,87.333084 72.243210,89.194740 65.086548,88.124939 
	C57.818691,87.038528 50.436378,86.735687 43.115623,85.979042 
	C38.274555,85.478683 33.370953,85.151505 28.642885,84.089767 
	C21.332279,82.448105 19.326626,79.041412 21.101301,71.810394 
	C26.080162,51.523705 36.641682,35.114281 54.732365,24.020729 
	C65.984138,17.120922 78.300148,12.875186 91.238060,11.169909 
	C102.453506,9.691662 113.900467,8.730392 125.173988,9.210493 
	C144.124344,10.017527 162.345398,14.792725 177.677628,26.466389 
	C189.863297,35.744316 197.113815,48.649067 198.949249,64.029442 
	C203.133469,99.092003 200.559738,134.315186 200.786285,169.460571 
	C200.879700,183.953079 205.568085,195.948425 214.348770,206.922913 
	C216.011429,209.000992 217.419952,211.430481 218.337784,213.921814 
	C219.725128,217.687637 219.212006,220.698303 215.299225,223.466797 
	C209.577942,227.514984 204.584808,232.591522 199.276077,237.223755 
	C193.966736,241.856522 188.713470,246.556442 183.315659,251.083878 
	C179.810486,254.023819 174.417084,253.652786 170.918442,250.395020 
	C168.611115,248.246567 166.431122,245.961411 164.087067,243.036377 
	C163.435089,240.841782 163.178604,239.143372 162.290741,237.893463 
	C159.705582,234.254059 156.728592,230.892090 154.159271,227.242493 
	C149.426086,220.519165 148.730652,220.657059 142.469223,225.885193 
	C135.261627,231.903351 128.038986,238.182480 119.935623,242.786728 
	C106.059044,250.671295 90.650215,253.070938 74.723305,252.010223 
	C64.582115,251.334793 54.841133,249.650116 45.752995,244.476151 
	C29.918636,235.461426 21.025688,221.373611 17.284048,204.347885 
	C13.461686,186.954865 15.569424,169.483002 23.285519,153.375534 
	C26.850565,145.933456 31.817827,138.495605 37.947170,133.097046 
	C48.654888,123.665962 61.231163,116.829491 75.555595,113.814461 
	C77.538605,113.397072 79.193573,111.421158 81.000404,110.166756 
M98.906860,210.012314 
	C115.112755,211.278030 125.029953,202.473648 132.295975,189.283752 
	C141.350327,172.847580 139.688644,154.960526 140.050446,137.044891 
	C136.378632,137.044891 133.245163,137.044891 129.339142,136.716278 
	C118.480606,134.940079 108.386681,137.757858 98.463608,141.768204 
	C89.631935,145.337433 82.867798,151.239044 78.692146,159.768173 
	C70.889381,175.706039 74.161026,195.100906 86.534889,207.843307 
	C89.681190,211.083328 95.648148,212.292542 98.906860,210.012314 
z"/>
<path fill="#FFFFFF" opacity="1.000000" stroke="none" 
	d="
M1085.000366,11.166782 
	C1085.752808,11.115326 1086.505371,11.063868 1087.706299,11.433476 
	C1090.058228,13.655541 1091.738647,13.886047 1093.000366,11.166806 
	C1093.752808,11.115339 1094.505371,11.063870 1095.714111,11.446011 
	C1099.412476,13.158189 1102.604004,16.167713 1106.000366,12.166763 
	C1119.830322,14.337728 1132.532715,19.037512 1144.016479,27.370913 
	C1159.366211,38.509869 1169.550293,53.362904 1176.993530,70.429047 
	C1182.972900,84.139076 1186.212158,98.644485 1187.811646,113.362640 
	C1189.426270,128.219406 1189.342529,143.114578 1187.278931,158.128204 
	C1185.188232,173.339630 1181.295654,187.898392 1174.595703,201.457031 
	C1168.353516,214.089096 1160.340942,225.620926 1149.013672,234.809845 
	C1140.206543,241.954300 1130.855469,247.692261 1120.251587,251.202423 
	C1101.917725,257.271454 1083.336670,258.059937 1064.307373,251.650909 
	C1062.443848,250.188675 1061.098999,248.970184 1059.519409,248.351074 
	C1045.956665,243.035263 1034.413696,235.342422 1024.983887,223.804825 
	C1006.330261,200.981873 998.427734,174.379791 996.161316,145.818085 
	C994.713501,127.572983 996.542847,109.409729 1000.998291,91.522751 
	C1007.777466,64.306946 1020.377380,40.977837 1044.899292,25.873138 
	C1053.832275,20.370707 1063.222046,15.374630 1074.292603,14.774857 
	C1077.916382,14.578525 1081.434082,12.425159 1085.000366,11.166782 
M1125.932861,149.785065 
	C1126.288452,148.590561 1126.941650,147.399490 1126.955444,146.201065 
	C1127.204834,124.495544 1126.471313,102.885460 1121.977905,81.514526 
	C1116.790039,56.840641 1099.259033,50.645069 1077.960327,57.294910 
	C1074.709106,58.309986 1070.937744,60.829597 1069.446899,63.709393 
	C1065.219238,71.875443 1061.966309,80.556282 1058.575928,89.131783 
	C1058.191650,90.103729 1059.376221,91.695885 1059.988037,93.857971 
	C1059.325195,100.674789 1058.133667,107.489899 1058.111572,114.308800 
	C1058.067505,127.890701 1058.797241,141.473099 1058.961182,155.058258 
	C1059.111694,167.526260 1061.386963,179.597229 1066.124634,191.039062 
	C1070.470703,201.535126 1078.021606,209.281326 1089.974121,209.811523 
	C1099.942871,210.253738 1108.082520,205.730270 1113.585327,196.966202 
	C1121.351929,184.596863 1123.180664,170.757080 1124.035889,156.619263 
	C1124.170288,154.398315 1124.777832,152.205978 1125.932861,149.785065 
z"/>
<path fill="#FFFFFF" opacity="1.000000" stroke="none" 
	d="
M852.743408,121.685715 
	C866.316467,102.079483 879.666138,82.770020 893.334595,62.999462 
	C868.963745,62.999462 845.475586,62.862431 821.990662,63.080250 
	C814.632874,63.148491 812.711731,60.639099 812.175964,53.402954 
	C811.464233,43.791500 811.847046,34.084309 812.056641,24.424698 
	C812.187805,18.379602 816.023315,15.007355 822.120422,15.006036 
	C868.441711,14.996008 914.763062,14.993754 961.084351,15.008748 
	C967.199890,15.010728 969.965820,17.852512 969.994629,24.046661 
	C970.018616,29.211874 969.361389,34.473778 970.125000,39.523647 
	C972.037903,52.173790 966.014160,61.790066 959.206421,71.312210 
	C950.752136,83.137421 942.390198,95.028839 934.010315,106.907127 
	C919.210205,127.885872 904.422546,148.873413 889.647034,169.869461 
	C888.835449,171.022781 888.182251,172.287506 887.155640,174.000412 
	C892.340332,174.000412 897.238342,173.865265 902.126831,174.023514 
	C924.912170,174.761139 946.596069,179.773193 966.633301,190.978195 
	C971.397522,193.642410 974.028931,197.639603 974.010010,203.250900 
	C973.974121,213.914673 973.999878,224.578659 973.999512,235.242554 
	C973.999207,243.974136 968.370667,247.213531 960.358215,243.867371 
	C949.888733,239.495041 939.286133,235.308212 928.455933,231.963974 
	C911.815552,226.825531 894.491821,225.918884 877.293823,227.175125 
	C856.093079,228.723755 835.790894,234.407043 816.697876,244.017120 
	C809.946960,247.415024 804.137268,244.360184 804.111328,236.788086 
	C804.063171,222.712280 803.734497,208.520416 805.422058,194.607254 
	C806.213074,188.085419 810.900269,181.755692 814.736633,175.942657 
	C822.475220,164.216797 830.850708,152.911728 838.941528,141.417618 
	C843.490417,134.955246 847.995361,128.461899 852.743408,121.685715 
z"/>
<path fill="#FFFFFF" opacity="1.000000" stroke="none" 
	d="
M4.020188,330.864502 
	C3.473608,326.529907 6.154656,323.990723 9.065529,323.680450 
	C15.029773,323.044769 21.156351,323.236755 27.150475,323.793945 
	C32.057236,324.250000 32.936039,328.698669 34.007172,332.642273 
	C41.323410,359.578278 48.661289,386.508392 56.025635,413.431274 
	C56.260475,414.289795 56.856655,415.049469 57.455368,416.177338 
	C62.184261,398.189941 66.782394,380.678711 71.392853,363.170746 
	C74.254059,352.305511 77.171013,341.454773 79.988678,330.578278 
	C81.262238,325.662201 84.408852,323.086334 89.594299,323.000305 
	C105.120125,322.742645 104.007698,322.668518 108.040436,337.466370 
	C112.595741,354.181763 117.423149,370.823059 122.148026,387.492126 
	C124.904510,397.216827 127.691895,406.932770 130.753098,417.660980 
	C132.321045,412.951996 133.808243,409.009399 134.950012,404.969208 
	C141.144547,383.049622 147.255737,361.106445 153.385605,339.168610 
	C153.645126,338.239807 153.794067,337.280609 154.013870,336.340088 
	C156.871292,324.114166 162.770599,320.397644 175.087570,323.059479 
	C180.550674,324.240112 182.185608,327.235901 180.667236,332.817352 
	C172.411880,363.163391 164.223038,393.527557 155.970139,423.874268 
	C152.263596,437.503510 148.499924,451.117584 144.678787,464.715057 
	C143.527191,468.812988 141.368225,471.609924 136.352432,471.075256 
	C132.728592,470.688995 129.009079,470.749847 125.370605,471.060608 
	C120.375259,471.487213 118.186371,468.576294 117.037315,464.520020 
	C108.910233,435.830872 100.864510,407.118652 92.482269,377.309265 
	C88.808311,391.619537 85.402924,404.880981 81.999001,418.142822 
	C77.966125,433.855103 74.069351,449.604523 69.799210,465.252014 
	C68.837494,468.776123 66.460365,471.513672 61.859585,471.074036 
	C58.062653,470.711212 54.176979,470.716583 50.378548,471.071594 
	C45.617603,471.516510 43.213989,468.766937 42.099018,465.013916 
	C37.898380,450.874512 33.996029,436.646240 30.007370,422.444122 
	C25.322943,405.764648 20.663958,389.078003 15.995859,372.393951 
	C12.321424,359.261353 8.655628,346.126343 4.959004,333.000000 
	C4.786534,332.387573 4.350336,331.849426 4.020188,330.864502 
z"/>
<path fill="#FFFFFF" opacity="1.000000" stroke="none" 
	d="
M379.957764,321.885315 
	C380.742950,321.594360 381.528137,321.303375 382.724426,321.429718 
	C384.842010,322.361145 386.521027,323.113373 388.263641,323.314301 
	C389.664062,323.475769 391.198395,322.603180 392.575684,322.817383 
	C404.101379,324.609985 414.533752,329.162781 422.744385,337.418457 
	C434.340363,349.078064 439.465332,363.803345 441.110657,379.966705 
	C441.355682,382.374023 443.076569,384.631165 444.114685,386.957764 
	C444.405670,387.742950 444.696655,388.528137 444.531006,389.760681 
	C443.060699,395.460632 441.580566,400.673737 441.131439,405.974182 
	C440.225311,416.668518 437.334106,426.616089 432.966797,436.447784 
	C425.592285,453.049469 413.011505,462.713196 395.848541,467.239197 
	C394.124115,467.693939 392.610840,468.949341 390.999603,469.833191 
	C373.807556,470.735748 367.938416,468.178436 348.032013,450.944763 
	C346.642914,454.789307 345.482910,458.542786 343.940918,462.132141 
	C341.949127,466.768372 337.179108,468.523438 330.998596,466.925934 
	C326.764832,465.831573 325.949982,462.591339 325.954529,458.600830 
	C326.020844,400.482513 325.998047,342.364105 326.003540,284.245697 
	C326.004028,279.094666 328.888153,276.129211 334.088043,276.016479 
	C337.749878,275.937073 341.414948,276.008148 345.587769,276.441162 
	C349.998230,280.187958 350.146484,284.546417 350.078766,289.278473 
	C349.865112,304.205170 349.994995,319.136841 350.008698,334.066589 
	C350.009888,335.386780 349.751373,336.903076 350.302094,337.974335 
	C350.909515,339.155853 352.311554,339.928864 353.367462,340.879822 
	C354.230896,339.881775 355.094330,338.883698 355.957764,337.885620 
	C356.392303,336.662292 356.826813,335.438934 357.949341,334.094543 
	C359.806122,333.483337 361.008820,333.060516 362.137878,332.491547 
	C367.155975,329.962738 372.192108,327.464050 377.128113,324.782166 
	C378.261414,324.166443 379.024384,322.869019 379.957764,321.885315 
M369.376251,347.086456 
	C367.360535,348.453156 365.034729,349.521271 363.382202,351.237610 
	C355.734802,359.180298 353.666260,369.590576 351.328888,379.817383 
	C351.197784,380.391052 352.489838,381.290009 353.008179,382.964264 
	C353.338623,392.189514 353.513672,401.423553 354.037415,410.637817 
	C354.751648,423.203033 358.479034,434.576172 369.517944,441.876648 
	C381.259369,449.641754 393.524689,449.479004 402.917969,439.306793 
	C411.277924,430.253510 414.265259,418.560699 414.949951,406.414734 
	C415.295105,400.291992 415.111328,394.139465 415.917969,387.795563 
	C416.276245,385.779999 417.322968,383.594543 416.874634,381.778046 
	C414.835480,373.516449 413.812042,364.553528 409.764984,357.332794 
	C401.574799,342.719910 390.137543,337.993469 374.396240,343.135895 
	C372.700012,343.690002 371.492554,345.740234 370.016113,347.016205 
	C370.016113,347.016205 370.096405,347.058502 369.376251,347.086456 
z"/>
<path fill="#FFFFFF" opacity="1.000000" stroke="none" 
	d="
M254.773346,470.999664 
	C245.112350,471.046661 235.880173,471.526886 226.982712,468.505554 
	C209.157776,462.452728 197.035431,450.317200 190.077850,433.061249 
	C184.291016,418.708893 182.817581,403.511566 184.152527,388.302246 
	C185.977493,367.509644 193.177368,348.819824 209.675446,334.921051 
	C217.713013,328.149780 227.249313,324.639923 237.636337,322.911346 
	C247.857986,321.210266 257.767334,322.069550 267.545410,325.032196 
	C284.550751,330.184692 295.221924,342.252350 301.866547,358.030396 
	C305.892212,367.589508 308.133423,377.745636 308.026306,388.270386 
	C308.016632,389.220642 308.331696,390.186981 308.576202,391.124969 
	C310.102570,396.981262 307.077911,400.987793 301.015228,400.991760 
	C273.857391,401.009613 246.699554,400.999542 219.541718,400.999573 
	C217.894211,400.999573 216.246719,400.999573 214.616440,400.999573 
	C212.886627,422.888458 222.028137,443.933746 245.202591,447.776642 
	C256.093201,449.582550 265.693848,445.123901 272.843750,436.422241 
	C274.552338,434.342834 275.880157,431.893585 277.080505,429.464844 
	C280.013336,423.530609 281.653809,421.913483 289.984283,423.039337 
	C292.996277,423.446381 295.958801,424.260651 298.921753,424.980316 
	C305.036377,426.465485 306.597565,429.603760 304.184540,435.318176 
	C295.935852,454.852081 281.522888,466.604675 260.474609,470.011749 
	C258.725189,470.294922 256.990387,470.668213 254.773346,470.999664 
M217.028564,370.795593 
	C216.486099,373.786499 215.943649,376.777405 215.428925,379.615417 
	C236.600601,379.615417 257.763519,379.615417 280.110931,379.615417 
	C277.606934,372.450134 275.776733,365.807526 273.002930,359.585602 
	C268.123932,348.641663 254.542526,341.137054 241.388046,344.943695 
	C228.402573,348.701447 221.705872,358.164917 217.028564,370.795593 
z"/>
<path fill="#FFFFFF" opacity="1.000000" stroke="none" 
	d="
M1149.014893,360.149841 
	C1154.124390,348.752594 1161.179810,339.253845 1171.231689,332.365021 
	C1179.170166,326.924744 1188.046875,324.117157 1197.730713,322.805481 
	C1209.069946,321.269623 1219.616211,323.035950 1230.076904,326.972565 
	C1240.560425,330.917816 1248.253052,338.150269 1254.023193,347.505676 
	C1262.779663,361.703308 1266.519287,377.245972 1266.020630,393.881775 
	C1265.845093,399.740143 1264.722534,400.991943 1258.787109,400.994568 
	C1231.625977,401.006592 1204.464966,401.000000 1177.303833,401.000061 
	C1175.676147,401.000061 1174.048462,401.000061 1172.033936,401.000061 
	C1171.739746,414.463959 1173.432983,427.206757 1182.759521,437.057312 
	C1198.744507,453.940338 1223.616455,451.736633 1235.214478,429.370026 
	C1238.534424,422.967651 1241.999023,421.479034 1249.213013,423.084930 
	C1251.873779,423.677216 1254.508545,424.386719 1257.165771,424.995819 
	C1262.649048,426.252533 1264.281128,428.847809 1262.262451,434.220123 
	C1255.861572,451.254944 1244.116333,462.754120 1226.548096,468.082794 
	C1210.067871,473.081482 1193.569824,473.009491 1177.940918,465.826263 
	C1160.215088,457.679260 1150.131836,442.815521 1144.945190,424.246124 
	C1141.474976,411.822205 1141.158936,399.106201 1142.296997,386.573151 
	C1143.096680,377.767456 1146.666626,369.213318 1149.014893,360.149841 
M1175.008057,369.870728 
	C1174.294678,373.441284 1173.581177,377.011841 1172.786743,380.988037 
	C1194.089478,380.988037 1214.867920,380.995056 1235.646362,380.946777 
	C1236.153931,380.945587 1236.660034,380.329620 1237.870850,379.839081 
	C1237.912231,377.538910 1238.233154,375.203186 1237.945679,372.944885 
	C1236.811646,364.037903 1233.453979,355.578033 1226.886841,349.820801 
	C1208.776001,333.943542 1181.812012,343.193634 1174.917969,365.098969 
	C1174.547607,366.275604 1175.030396,367.720764 1175.008057,369.870728 
z"/>
<path fill="#FFFFFF" opacity="1.000000" stroke="none" 
	d="
M1349.559937,412.217468 
	C1336.596558,409.349365 1323.897827,407.072571 1311.434082,403.879028 
	C1299.372192,400.788574 1288.739746,394.838135 1283.461548,382.820770 
	C1275.005615,363.568909 1280.130737,337.929169 1303.169189,328.397278 
	C1323.601685,319.943573 1344.109863,320.526276 1364.227417,329.139801 
	C1374.848145,333.687225 1381.139282,342.863037 1385.625854,353.173859 
	C1387.705811,357.953979 1385.874756,361.488678 1380.726440,362.988251 
	C1376.423218,364.241669 1372.017090,365.264679 1367.587036,365.919922 
	C1364.066772,366.440613 1361.381470,364.872986 1359.773438,361.410614 
	C1352.713379,346.209412 1333.397949,341.334229 1318.863403,347.616760 
	C1311.628784,350.743866 1307.374390,357.117798 1308.000610,363.880310 
	C1308.628052,370.658661 1314.205933,376.306335 1322.038818,377.994232 
	C1336.039062,381.011047 1350.197998,383.425659 1364.018433,387.112152 
	C1384.870361,392.674286 1394.951172,411.885559 1392.818237,430.992889 
	C1390.650391,450.413483 1380.525024,462.153107 1359.161377,467.958405 
	C1338.380493,473.605438 1317.896240,472.783905 1298.477051,462.742920 
	C1286.577393,456.590118 1279.041748,446.536926 1275.294434,433.690674 
	C1274.498169,430.960876 1277.407715,426.818298 1280.572998,426.015411 
	C1284.615356,424.990051 1288.631348,423.757782 1292.737061,423.115875 
	C1296.677490,422.499847 1300.352295,423.949829 1301.893555,427.735077 
	C1307.955811,442.624207 1320.198608,447.239288 1334.799438,447.963013 
	C1343.393066,448.389008 1351.545044,447.360382 1358.450195,441.160675 
	C1367.717407,432.840363 1365.973755,417.337494 1351.225098,412.981628 
	C1350.775269,412.848785 1350.359131,412.601624 1349.559937,412.217468 
z"/>
<path fill="#FFFFFF" opacity="1.000000" stroke="none" 
	d="
M556.474976,412.173401 
	C542.255981,409.014404 528.213501,406.714600 514.637024,402.799133 
	C501.251678,398.938751 490.498596,390.398315 487.372467,376.323822 
	C482.175659,352.926727 491.420319,332.481720 517.667236,325.293060 
	C532.664124,321.185577 548.155396,321.221161 563.147644,326.065125 
	C577.539307,330.714996 587.603333,340.116150 592.428406,354.795776 
	C593.740356,358.787170 592.251831,361.353516 588.869446,362.510162 
	C584.326904,364.063507 579.575867,365.168976 574.827576,365.911865 
	C570.381958,366.607330 567.406799,364.019684 565.610168,360.121063 
	C558.261719,344.175690 534.185913,341.159851 521.725159,349.496216 
	C515.265991,353.817383 514.337708,359.584412 515.111389,366.073059 
	C515.812500,371.953918 519.851990,375.636963 525.495422,376.932495 
	C535.226379,379.166412 545.035217,381.072174 554.837097,382.983551 
	C567.809509,385.513153 580.557312,388.409790 589.708557,399.183258 
	C595.319641,405.789032 598.670837,413.247253 599.011658,421.995636 
	C599.404175,432.066803 598.567688,441.650330 592.360291,450.350342 
	C585.043152,460.605713 574.891357,466.336945 563.151855,468.771881 
	C554.401367,470.586853 545.205261,471.051788 536.236572,470.847107 
	C518.592712,470.444519 502.613373,464.993591 490.877350,451.101105 
	C487.039246,446.557800 484.538239,440.711792 482.192841,435.138702 
	C480.501648,431.120087 482.912994,427.269348 487.194733,426.069946 
	C491.672913,424.815613 496.239014,423.752258 500.836365,423.087433 
	C504.187042,422.602875 506.902740,424.170776 508.135620,427.553223 
	C515.960632,449.021027 546.587219,452.264496 561.702393,443.794525 
	C567.939636,440.299408 570.844788,434.761047 570.787048,428.266327 
	C570.734009,422.294861 567.865601,417.118835 561.496338,414.867981 
	C559.854858,414.287903 558.397583,413.186768 556.474976,412.173401 
z"/>
<path fill="#FFFFFF" opacity="1.000000" stroke="none" 
	d="
M670.957764,322.885437 
	C676.221924,322.924164 681.534546,322.520691 686.740540,323.090820 
	C698.696411,324.400055 709.105164,329.688690 717.404785,338.138794 
	C726.143555,347.036041 731.213440,358.318817 733.872864,370.425629 
	C735.504639,377.854065 736.312683,385.508698 736.897339,393.107391 
	C737.349365,398.983002 734.989441,400.988586 729.013672,400.992279 
	C701.195801,401.009521 673.377991,401.000031 645.560120,401.000092 
	C644.577942,401.000092 643.595825,401.000092 642.624817,401.000092 
	C641.476318,422.193115 648.494934,441.690979 671.664368,447.798401 
	C673.694702,448.333588 675.963989,447.962555 678.650146,448.450714 
	C682.741394,448.613037 686.606689,449.126129 689.807007,447.901428 
	C697.092834,445.113403 702.758728,440.273529 706.166565,432.839050 
	C709.875732,424.747192 712.509460,423.776459 721.091248,425.848511 
	C721.894165,426.042358 722.725098,426.123199 723.524292,426.329285 
	C730.549927,428.140900 732.424255,431.469757 728.392578,437.789368 
	C724.093262,444.528625 718.477844,450.423065 713.522095,456.753021 
	C712.507324,458.049164 711.869934,459.640808 711.058594,461.096283 
	C711.058594,461.096283 711.013489,461.015625 710.647644,461.021515 
	C708.197632,461.521179 705.882446,461.590820 704.067749,462.579285 
	C694.253845,467.924805 683.745850,469.459473 672.756165,469.017487 
	C651.324585,468.155518 634.723389,458.980194 624.562012,439.912201 
	C611.568848,415.530457 610.896179,390.229218 620.289124,364.388641 
	C624.240662,353.517792 630.887634,344.292664 639.223022,336.912262 
	C646.880249,330.132446 656.791077,326.439911 667.215820,324.931885 
	C668.534241,324.741150 669.713867,323.591095 670.957764,322.885437 
M648.946167,362.519409 
	C646.822205,368.500336 644.698242,374.481293 642.455017,380.798004 
	C664.515076,380.798004 685.602356,380.798004 706.997681,380.798004 
	C706.940308,372.856537 704.598267,365.809021 701.013794,359.073364 
	C694.957214,347.692200 680.181152,340.656738 667.138000,345.764465 
	C658.825256,349.019745 653.735107,354.934601 648.946167,362.519409 
z"/>
<path fill="#FFFFFF" opacity="1.000000" stroke="none" 
	d="
M1063.141113,323.998901 
	C1080.573120,321.168762 1096.666870,322.621033 1110.559082,334.093872 
	C1120.705078,342.472687 1126.942139,353.375214 1129.486450,366.114624 
	C1131.109741,374.243500 1131.445068,379.623444 1119.715698,379.020081 
	C1117.057251,378.883331 1114.366821,379.200684 1111.724731,378.952332 
	C1107.713257,378.575287 1104.883667,376.971069 1103.897095,372.389496 
	C1102.044067,363.783936 1098.596680,356.099792 1091.125000,350.454956 
	C1081.502686,343.185303 1065.522705,345.095001 1057.906250,355.377197 
	C1046.530273,370.734467 1044.923950,387.910583 1046.781372,406.262573 
	C1047.777954,416.108704 1049.966431,425.309631 1054.500366,433.989471 
	C1059.630859,443.811432 1069.384399,448.560669 1077.166504,447.834686 
	C1088.870728,446.742828 1096.424072,439.489166 1100.962280,428.924530 
	C1101.463257,427.758423 1101.627930,426.452393 1102.018799,425.233795 
	C1105.420166,414.632690 1114.266479,410.453156 1124.907715,414.404785 
	C1130.190430,416.366516 1131.566528,418.470886 1129.911377,425.274780 
	C1125.560791,443.157776 1116.728149,457.860535 1099.391846,466.197388 
	C1078.699829,476.147949 1047.039185,471.706085 1032.498291,450.152985 
	C1025.223511,439.370026 1020.601135,427.807617 1018.994995,414.964569 
	C1018.349182,409.800598 1016.954468,404.615540 1017.139343,399.484711 
	C1017.623840,386.035400 1018.702026,372.616364 1023.978088,359.930145 
	C1028.464355,349.142822 1034.054199,339.030396 1044.107422,332.621643 
	C1049.816528,328.982239 1056.470947,326.826019 1063.141113,323.998901 
z"/>
<path fill="#FFFFFF" opacity="1.000000" stroke="none" 
	d="
M875.981934,440.093018 
	C867.976868,415.981049 860.016296,392.270538 851.993347,368.581177 
	C847.829407,356.286011 843.558655,344.026947 839.329285,331.753967 
	C837.103699,325.295563 837.663513,323.422394 844.737061,321.994598 
	C850.263184,320.879150 856.181396,321.000671 861.845215,321.493500 
	C866.479187,321.896759 869.103455,325.165649 870.567261,329.895935 
	C875.116516,344.596893 880.234009,359.120819 884.938232,373.775330 
	C890.474670,391.022705 895.802368,408.337036 901.255432,425.611328 
	C901.488220,426.348816 902.071228,426.975769 902.497192,427.664001 
	C912.898438,395.336548 923.409607,363.071014 933.551941,330.689911 
	C934.993042,326.088959 936.407166,322.844330 941.614380,321.762451 
	C947.715027,320.494934 953.772278,320.076477 959.064636,323.310211 
	C960.549744,324.217651 960.966675,328.775269 960.222107,331.138092 
	C951.983704,357.281067 943.467163,383.337006 934.927185,409.384155 
	C929.034851,427.355743 922.983704,445.275208 917.012695,463.221039 
	C914.651672,470.317169 913.722473,470.999268 906.221313,470.999939 
	C902.221863,471.000275 898.222351,471.001312 894.222900,470.999725 
	C887.538330,470.997131 886.174072,469.996185 884.004028,463.665527 
	C881.355164,455.938263 878.670044,448.223450 875.981934,440.093018 
z"/>
<path fill="#FFFFFF" opacity="1.000000" stroke="none" 
	d="
M799.744629,326.693268 
	C806.665222,322.989929 813.859924,323.731934 820.786499,324.318115 
	C822.685730,324.478882 825.238525,328.143219 825.776245,330.578522 
	C826.617798,334.390320 826.086731,338.526947 825.975037,342.521454 
	C825.858459,346.694183 823.359192,349.697357 819.512146,349.864075 
	C798.544556,350.772827 788.792603,363.975739 783.488464,382.114929 
	C782.498779,385.499329 782.081787,389.163025 782.062805,392.701355 
	C781.939697,415.686981 782.005920,438.673645 781.995605,461.659943 
	C781.992676,468.201263 779.282532,470.964081 772.883057,470.996582 
	C769.218628,471.015198 765.551941,471.079437 761.890137,470.980316 
	C756.959351,470.846802 754.007446,467.850220 754.006287,463.052887 
	C753.996216,420.744751 754.004883,378.436615 753.994019,336.128479 
	C753.992859,331.566681 755.080566,328.024384 760.618225,327.826752 
	C764.362915,327.693085 768.162415,326.727142 771.823425,327.141327 
	C778.190369,327.861633 779.991943,330.415588 779.999207,336.907074 
	C780.001587,339.071838 779.999573,341.236603 779.999573,344.165802 
	C785.581604,336.816437 790.797119,329.867767 799.744629,326.693268 
z"/>
<path fill="#FFFFFF" opacity="1.000000" stroke="none" 
	d="
M972.000427,439.000000 
	C972.000427,402.344421 971.999268,366.188843 972.001343,330.033264 
	C972.001770,322.708466 973.671082,321.008820 980.856873,321.001038 
	C985.522095,320.996002 990.187378,320.993469 994.852600,321.002563 
	C998.841431,321.010376 1000.979065,323.050323 1000.981445,327.008423 
	C1001.009460,373.327545 1001.007751,419.646698 1000.984619,465.965820 
	C1000.982605,469.931458 998.861816,471.979584 994.878479,471.994598 
	C989.546875,472.014709 984.213501,472.080261 978.883911,471.975189 
	C974.227051,471.883362 972.071716,469.707581 972.024536,464.991974 
	C971.939636,456.495422 972.000488,447.997406 972.000427,439.000000 
z"/>
<path fill="#FFFFFF" opacity="1.000000" stroke="none" 
	d="
M989.467041,269.179138 
	C1001.534363,273.356720 1006.191101,281.484192 1003.128601,291.717896 
	C1000.609375,300.135986 992.009888,305.259033 983.905945,303.961548 
	C975.522949,302.619385 970.739807,296.826019 969.098267,288.183197 
	C967.732971,280.994720 973.458862,272.533051 980.930298,270.101654 
	C983.490051,269.268677 986.349426,269.356567 989.467041,269.179138 
z"/>
<path fill="#FFFFFF" opacity="1.000000" stroke="none" 
	d="
M80.601501,110.089447 
	C79.193573,111.421158 77.538605,113.397072 75.555595,113.814461 
	C61.231163,116.829491 48.654888,123.665962 37.947170,133.097046 
	C31.817827,138.495605 26.850565,145.933456 23.285519,153.375534 
	C15.569424,169.483002 13.461686,186.954865 17.284048,204.347885 
	C21.025688,221.373611 29.918636,235.461426 45.752995,244.476151 
	C54.841133,249.650116 64.582115,251.334793 74.723305,252.010223 
	C90.650215,253.070938 106.059044,250.671295 119.935623,242.786728 
	C128.038986,238.182480 135.261627,231.903351 142.469223,225.885193 
	C148.730652,220.657059 149.426086,220.519165 154.159271,227.242493 
	C156.728592,230.892090 159.705582,234.254059 162.290741,237.893463 
	C163.178604,239.143372 163.435089,240.841782 163.968750,242.724823 
	C158.670227,236.997055 153.382935,230.879745 148.909439,225.703979 
	C138.657990,232.707764 128.324402,240.915054 116.909904,247.140442 
	C109.937752,250.943024 101.398361,252.968948 93.396843,253.565323 
	C75.140060,254.925995 56.886494,255.066284 40.485325,244.214767 
	C26.008718,234.636597 17.971622,221.012451 15.198770,204.507797 
	C12.726053,189.789642 12.639503,174.902939 17.905125,160.425659 
	C23.310177,145.565033 31.939926,133.616974 45.366199,124.706627 
	C56.185646,117.526299 67.874146,113.205788 80.601501,110.089447 
z"/>
<path fill="#FFFFFF" opacity="1.000000" stroke="none" 
	d="
M1084.574219,11.089240 
	C1081.434082,12.425159 1077.916382,14.578525 1074.292603,14.774857 
	C1063.222046,15.374630 1053.832275,20.370707 1044.899292,25.873138 
	C1020.377380,40.977837 1007.777466,64.306946 1000.998291,91.522751 
	C996.542847,109.409729 994.713501,127.572983 996.161316,145.818085 
	C998.427734,174.379791 1006.330261,200.981873 1024.983887,223.804825 
	C1034.413696,235.342422 1045.956665,243.035263 1059.519409,248.351074 
	C1061.098999,248.970184 1062.443848,250.188675 1063.948975,251.481232 
	C1054.437256,250.615555 1046.551392,245.508926 1038.930054,240.287262 
	C1022.775696,229.219055 1012.382141,213.489410 1005.066467,195.669373 
	C999.210815,181.405762 995.554871,166.549911 995.003906,151.047806 
	C994.640015,140.808075 993.460449,130.505249 994.172363,120.337563 
	C995.924438,95.316376 1001.714722,71.381310 1015.960876,50.099468 
	C1030.066284,29.027822 1049.717285,16.643021 1074.458984,12.047119 
	C1077.642944,11.455687 1080.916138,11.345061 1084.574219,11.089240 
z"/>
<path fill="#FFFFFF" opacity="1.000000" stroke="none" 
	d="
M670.516113,322.938538 
	C669.713867,323.591095 668.534241,324.741150 667.215820,324.931885 
	C656.791077,326.439911 646.880249,330.132446 639.223022,336.912262 
	C630.887634,344.292664 624.240662,353.517792 620.289124,364.388641 
	C610.896179,390.229218 611.568848,415.530457 624.562012,439.912201 
	C634.723389,458.980194 651.324585,468.155518 672.756165,469.017487 
	C683.745850,469.459473 694.253845,467.924805 704.067749,462.579285 
	C705.882446,461.590820 708.197632,461.521179 710.688110,461.043823 
	C704.459900,464.039642 698.084961,468.409729 691.136353,469.707031 
	C676.956421,472.354431 662.631958,472.383087 648.924866,466.083160 
	C637.777588,460.959717 629.070679,453.319550 623.012695,442.744263 
	C617.259399,432.700867 614.266418,421.861481 612.833374,410.294159 
	C610.843140,394.229675 612.411682,378.781525 618.020508,363.722931 
	C626.109253,342.005981 641.062378,327.896149 664.088318,323.074371 
	C666.005432,322.672943 668.075439,323.001953 670.516113,322.938538 
z"/>
<path fill="#FFFFFF" opacity="1.000000" stroke="none" 
	d="
M391.414368,469.910522 
	C392.610840,468.949341 394.124115,467.693939 395.848541,467.239197 
	C413.011505,462.713196 425.592285,453.049469 432.966797,436.447784 
	C437.334106,426.616089 440.225311,416.668518 441.131439,405.974182 
	C441.580566,400.673737 443.060699,395.460632 444.453827,390.103851 
	C445.004150,409.185730 442.228058,427.778595 432.017792,444.410706 
	C423.778687,457.831787 412.394440,467.221008 396.006622,469.024353 
	C394.595856,469.179596 393.220795,469.658997 391.414368,469.910522 
z"/>
<path fill="#FFFFFF" opacity="1.000000" stroke="none" 
	d="
M711.414551,461.050049 
	C711.869934,459.640808 712.507324,458.049164 713.522095,456.753021 
	C718.477844,450.423065 724.093262,444.528625 728.392578,437.789368 
	C732.424255,431.469757 730.549927,428.140900 723.524292,426.329285 
	C722.725098,426.123199 721.894165,426.042358 721.091248,425.848511 
	C712.509460,423.776459 709.875732,424.747192 706.166565,432.839050 
	C702.758728,440.273529 697.092834,445.113403 689.807007,447.901428 
	C686.606689,449.126129 682.741394,448.613037 679.088867,448.527893 
	C691.693909,446.758270 700.317993,439.656891 705.950500,428.602295 
	C707.823181,424.926971 710.083313,422.374847 714.579590,423.001129 
	C719.380066,423.669678 724.229370,424.108307 728.962036,425.101624 
	C732.321106,425.806702 734.189941,430.454376 732.721069,434.561768 
	C729.439270,443.738953 723.874023,451.434540 716.526733,457.811371 
	C715.095642,459.053345 713.363647,459.948608 711.414551,461.050049 
z"/>
<path fill="#FFFFFF" opacity="1.000000" stroke="none" 
	d="
M444.061523,386.506317 
	C443.076569,384.631165 441.355682,382.374023 441.110657,379.966705 
	C439.465332,363.803345 434.340363,349.078064 422.744385,337.418457 
	C414.533752,329.162781 404.101379,324.609985 392.575684,322.817383 
	C391.198395,322.603180 389.664062,323.475769 388.263641,323.314301 
	C386.521027,323.113373 384.842010,322.361145 383.067627,321.506897 
	C399.464630,319.753784 414.049316,324.070526 425.581329,336.205322 
	C434.324493,345.405487 439.337402,356.776428 441.915588,369.107849 
	C443.076447,374.660004 443.338501,380.400055 444.061523,386.506317 
z"/>
<path fill="#FFFFFF" opacity="1.000000" stroke="none" 
	d="
M355.537292,337.938751 
	C355.094330,338.883698 354.230896,339.881775 353.367462,340.879822 
	C352.311554,339.928864 350.909515,339.155853 350.302094,337.974335 
	C349.751373,336.903076 350.009888,335.386780 350.008698,334.066589 
	C349.994995,319.136841 349.865112,304.205170 350.078766,289.278473 
	C350.146484,284.546417 349.998230,280.187958 346.048279,276.518524 
	C350.829712,276.763489 353.163177,279.109406 353.083282,284.359314 
	C352.849121,299.750916 353.021545,315.148468 352.967285,330.543457 
	C352.961700,332.125214 352.678619,333.758972 352.216888,335.274994 
	C351.281952,338.344849 353.241364,338.064697 355.537292,337.938751 
z"/>
<path fill="#FFFFFF" opacity="1.000000" stroke="none" 
	d="
M379.544128,321.938446 
	C379.024384,322.869019 378.261414,324.166443 377.128113,324.782166 
	C372.192108,327.464050 367.155975,329.962738 362.137878,332.491547 
	C361.008820,333.060516 359.806122,333.483337 358.261414,333.965698 
	C361.155151,327.558319 367.669708,325.742523 373.514557,323.070007 
	C375.198761,322.299927 377.248383,322.328949 379.544128,321.938446 
z"/>
<path fill="#FFFFFF" opacity="1.000000" stroke="none" 
	d="
M1105.574341,12.089394 
	C1102.604004,16.167713 1099.412476,13.158189 1096.085083,11.523205 
	C1099.049316,11.448534 1102.098755,11.730279 1105.574341,12.089394 
z"/>
<path fill="#FFFFFF" opacity="1.000000" stroke="none" 
	d="
M1092.588501,11.089374 
	C1091.738647,13.886047 1090.058228,13.655541 1088.077393,11.510675 
	C1089.392090,11.115185 1090.784302,11.063563 1092.588501,11.089374 
z"/>
<path fill="#000000" opacity="1.000000" stroke="none" 
	d="
M645.114258,154.042191 
	C645.471680,154.042877 645.743225,153.890533 646.283569,153.237534 
	C647.369873,151.926331 648.101562,150.962769 648.833313,149.999207 
	C649.493591,149.570221 650.153931,149.141220 651.305176,148.360138 
	C655.878357,146.043228 659.960571,144.078415 664.042847,142.113586 
	C675.035461,140.409042 686.026855,138.696899 697.023071,137.015717 
	C697.813904,136.894806 698.639343,136.999908 699.939941,136.999908 
	C699.785217,153.760757 702.099365,170.601669 694.805359,186.318832 
	C689.854004,196.988083 682.656799,205.830109 670.530212,209.025742 
	C668.063660,209.675735 665.432068,209.699783 662.025513,210.012268 
	C654.737976,209.641037 649.036255,207.287292 644.980713,202.337723 
	C637.398621,193.084320 636.566833,182.042252 638.749146,170.926865 
	C639.891846,165.106430 642.931335,159.658401 645.114258,154.042191 
z"/>
<path fill="#FFFFFF" opacity="1.000000" stroke="none" 
	d="
M644.733521,154.036789 
	C642.931335,159.658401 639.891846,165.106430 638.749146,170.926865 
	C636.566833,182.042252 637.398621,193.084320 644.980713,202.337723 
	C649.036255,207.287292 654.737976,209.641037 661.587463,210.089432 
	C659.692566,210.618484 657.273560,211.756348 655.096130,211.403366 
	C645.620667,209.867279 640.112244,203.025757 637.707947,194.750641 
	C634.792175,184.714813 634.330200,174.050537 638.037842,163.918472 
	C639.350037,160.332657 642.203125,157.310730 644.733521,154.036789 
z"/>
<path fill="#FFFFFF" opacity="1.000000" stroke="none" 
	d="
M663.822754,141.825516 
	C659.960571,144.078415 655.878357,146.043228 651.419128,148.061279 
	C653.460022,142.543839 658.309753,141.617401 663.822754,141.825516 
z"/>
<path fill="#FFFFFF" opacity="1.000000" stroke="none" 
	d="
M648.466614,150.010239 
	C648.101562,150.962769 647.369873,151.926331 646.340576,153.001678 
	C646.728638,152.082748 647.414307,151.052017 648.466614,150.010239 
z"/>
<path fill="#000000" opacity="1.000000" stroke="none" 
	d="
M130.111710,137.044891 
	C133.245163,137.044891 136.378632,137.044891 140.050446,137.044891 
	C139.688644,154.960526 141.350327,172.847580 132.295975,189.283752 
	C125.029953,202.473648 115.112755,211.278030 98.075188,210.010010 
	C93.117470,207.509964 88.343674,205.671295 84.996284,202.381317 
	C77.336037,194.852432 76.299454,184.797379 77.162033,174.750443 
	C77.604836,169.592926 78.544914,163.852249 81.231743,159.629486 
	C89.616119,146.452118 102.819527,140.872162 117.873161,138.977982 
	C121.968910,138.462616 126.033058,137.696121 130.111710,137.044891 
z"/>
<path fill="#FFFFFF" opacity="1.000000" stroke="none" 
	d="
M129.725433,136.880585 
	C126.033058,137.696121 121.968910,138.462616 117.873161,138.977982 
	C102.819527,140.872162 89.616119,146.452118 81.231743,159.629486 
	C78.544914,163.852249 77.604836,169.592926 77.162033,174.750443 
	C76.299454,184.797379 77.336037,194.852432 84.996284,202.381317 
	C88.343674,205.671295 93.117470,207.509964 97.621979,210.087250 
	C95.648148,212.292542 89.681190,211.083328 86.534889,207.843307 
	C74.161026,195.100906 70.889381,175.706039 78.692146,159.768173 
	C82.867798,151.239044 89.631935,145.337433 98.463608,141.768204 
	C108.386681,137.757858 118.480606,134.940079 129.725433,136.880585 
z"/>
<path fill="#000000" opacity="1.000000" stroke="none" 
	d="
M1125.166748,150.000412 
	C1124.777832,152.205978 1124.170288,154.398315 1124.035889,156.619263 
	C1123.180664,170.757080 1121.351929,184.596863 1113.585327,196.966202 
	C1108.082520,205.730270 1099.942871,210.253738 1089.974121,209.811523 
	C1078.021606,209.281326 1070.470703,201.535126 1066.124634,191.039062 
	C1061.386963,179.597229 1059.111694,167.526260 1058.961182,155.058258 
	C1058.797241,141.473099 1058.067505,127.890701 1058.111572,114.308800 
	C1058.133667,107.489899 1059.325195,100.674789 1059.991943,93.029747 
	C1061.332642,87.599045 1062.433716,82.911415 1064.060303,78.413750 
	C1066.575195,71.459435 1069.672119,63.797882 1076.230225,60.673828 
	C1093.135132,52.620876 1112.230591,55.835770 1118.882935,79.163673 
	C1123.697998,96.049500 1124.548950,113.552910 1124.983643,131.028351 
	C1125.141113,137.349976 1125.111206,143.676254 1125.166748,150.000412 
z"/>
<path fill="#FFFFFF" opacity="1.000000" stroke="none" 
	d="
M1125.549805,149.892731 
	C1125.111206,143.676254 1125.141113,137.349976 1124.983643,131.028351 
	C1124.548950,113.552910 1123.697998,96.049500 1118.882935,79.163673 
	C1112.230591,55.835770 1093.135132,52.620876 1076.230225,60.673828 
	C1069.672119,63.797882 1066.575195,71.459435 1064.060303,78.413750 
	C1062.433716,82.911415 1061.332642,87.599045 1059.914551,92.600983 
	C1059.376221,91.695885 1058.191650,90.103729 1058.575928,89.131783 
	C1061.966309,80.556282 1065.219238,71.875443 1069.446899,63.709393 
	C1070.937744,60.829597 1074.709106,58.309986 1077.960327,57.294910 
	C1099.259033,50.645069 1116.790039,56.840641 1121.977905,81.514526 
	C1126.471313,102.885460 1127.204834,124.495544 1126.955444,146.201065 
	C1126.941650,147.399490 1126.288452,148.590561 1125.549805,149.892731 
z"/>
<path fill="#000000" opacity="1.000000" stroke="none" 
	d="
M415.166748,388.000397 
	C415.111328,394.139465 415.295105,400.291992 414.949951,406.414734 
	C414.265259,418.560699 411.277924,430.253510 402.917969,439.306793 
	C393.524689,449.479004 381.259369,449.641754 369.517944,441.876648 
	C358.479034,434.576172 354.751648,423.203033 354.037415,410.637817 
	C353.513672,401.423553 353.338623,392.189514 353.428223,382.302246 
	C354.138672,372.742676 356.724182,364.614807 362.076019,357.449860 
	C364.694153,353.944763 367.419556,350.519775 370.096405,347.058502 
	C370.096405,347.058502 370.016113,347.016205 370.422607,347.007812 
	C375.744904,345.669342 380.695679,343.135803 385.568634,343.277557 
	C393.883209,343.519501 400.279907,348.247284 405.067474,355.222015 
	C411.875793,365.140656 413.670624,376.500458 415.166748,388.000397 
z"/>
<path fill="#FFFFFF" opacity="1.000000" stroke="none" 
	d="
M415.542358,387.897980 
	C413.670624,376.500458 411.875793,365.140656 405.067474,355.222015 
	C400.279907,348.247284 393.883209,343.519501 385.568634,343.277557 
	C380.695679,343.135803 375.744904,345.669342 370.443726,347.047974 
	C371.492554,345.740234 372.700012,343.690002 374.396240,343.135895 
	C390.137543,337.993469 401.574799,342.719910 409.764984,357.332794 
	C413.812042,364.553528 414.835480,373.516449 416.874634,381.778046 
	C417.322968,383.594543 416.276245,385.779999 415.542358,387.897980 
z"/>
<path fill="#FFFFFF" opacity="1.000000" stroke="none" 
	d="
M369.736328,347.072479 
	C367.419556,350.519775 364.694153,353.944763 362.076019,357.449860 
	C356.724182,364.614807 354.138672,372.742676 353.483856,381.838928 
	C352.489838,381.290009 351.197784,380.391052 351.328888,379.817383 
	C353.666260,369.590576 355.734802,359.180298 363.382202,351.237610 
	C365.034729,349.521271 367.360535,348.453156 369.736328,347.072479 
z"/>
<path fill="#000000" opacity="1.000000" stroke="none" 
	d="
M217.221466,370.431152 
	C221.705872,358.164917 228.402573,348.701447 241.388046,344.943695 
	C254.542526,341.137054 268.123932,348.641663 273.002930,359.585602 
	C275.776733,365.807526 277.606934,372.450134 280.110931,379.615417 
	C257.763519,379.615417 236.600601,379.615417 215.428925,379.615417 
	C215.943649,376.777405 216.486099,373.786499 217.221466,370.431152 
z"/>
<path fill="#000000" opacity="1.000000" stroke="none" 
	d="
M1237.166748,380.000366 
	C1236.660034,380.329620 1236.153931,380.945587 1235.646362,380.946777 
	C1214.867920,380.995056 1194.089478,380.988037 1172.786743,380.988037 
	C1173.581177,377.011841 1174.294678,373.441284 1175.394897,369.302612 
	C1177.857300,364.790894 1179.506470,360.538757 1182.092041,356.964020 
	C1188.720703,347.799194 1199.742310,341.747864 1212.076050,344.882294 
	C1223.585571,347.807343 1230.179077,355.421143 1233.891235,365.985077 
	C1235.472412,370.484894 1236.103760,375.318451 1237.166748,380.000366 
z"/>
<path fill="#FFFFFF" opacity="1.000000" stroke="none" 
	d="
M1237.518799,379.919739 
	C1236.103760,375.318451 1235.472412,370.484894 1233.891235,365.985077 
	C1230.179077,355.421143 1223.585571,347.807343 1212.076050,344.882294 
	C1199.742310,341.747864 1188.720703,347.799194 1182.092041,356.964020 
	C1179.506470,360.538757 1177.857300,364.790894 1175.448975,368.887756 
	C1175.030396,367.720764 1174.547607,366.275604 1174.917969,365.098969 
	C1181.812012,343.193634 1208.776001,333.943542 1226.886841,349.820801 
	C1233.453979,355.578033 1236.811646,364.037903 1237.945679,372.944885 
	C1238.233154,375.203186 1237.912231,377.538910 1237.518799,379.919739 
z"/>
<path fill="#000000" opacity="1.000000" stroke="none" 
	d="
M648.984253,362.137756 
	C653.735107,354.934601 658.825256,349.019745 667.138000,345.764465 
	C680.181152,340.656738 694.957214,347.692200 701.013794,359.073364 
	C704.598267,365.809021 706.940308,372.856537 706.997681,380.798004 
	C685.602356,380.798004 664.515076,380.798004 642.455017,380.798004 
	C644.698242,374.481293 646.822205,368.500336 648.984253,362.137756 
z"/>
</svg>