<svg version="1.1" id="Layer_1" xmlns="http://www.w3.org/2000/svg" xmlns:xlink="http://www.w3.org/1999/xlink" x="0px" y="0px"
	 width="100%" viewBox="0 0 694 513" enable-background="new 0 0 694 513" xml:space="preserve">
<path fill="#000000" opacity="1.000000" stroke="none" 
	d="
M436.000000,514.000000 
	C290.666656,514.000000 145.833328,514.000000 1.000000,514.000000 
	C1.000000,343.000000 1.000000,172.000000 1.000000,1.000000 
	C232.333328,1.000000 463.666656,1.000000 695.000000,1.000000 
	C695.000000,172.000000 695.000000,343.000000 695.000000,514.000000 
	C608.833313,514.000000 522.666687,514.000000 436.000000,514.000000 
M672.002197,159.190582 
	C672.685486,153.471451 673.368835,147.752335 674.706909,141.523148 
	C674.415955,136.348160 674.125061,131.173172 673.939148,125.203094 
	C672.237427,119.801155 670.535706,114.399216 668.736877,108.299431 
	C664.778259,102.197212 660.819641,96.094994 656.914185,89.465485 
	C656.613770,89.356369 656.313416,89.247246 655.536804,88.999420 
	C655.536804,88.999420 655.051819,88.895325 654.988831,88.201576 
	C647.989807,82.523491 640.990784,76.845406 633.343140,70.853874 
	C624.560120,67.291267 615.777100,63.728664 606.282837,59.779854 
	C597.854553,58.574688 589.426270,57.369526 580.076172,56.026340 
	C573.050232,56.739010 566.024231,57.451679 558.206116,58.024048 
	C548.123657,61.977215 538.041138,65.930382 527.227539,69.998878 
	C500.629486,82.958656 478.350708,101.848808 457.455414,122.272278 
	C436.516388,142.738510 416.566315,164.217758 396.239105,185.307312 
	C393.299591,188.357117 390.674866,191.710312 387.255829,194.728851 
	C386.635834,194.194931 386.050964,193.612549 385.390747,193.134186 
	C369.624634,181.710388 353.850464,170.297745 337.760651,158.272751 
	C334.354584,155.529037 330.795898,152.952408 327.573120,150.008057 
	C320.001129,143.090256 312.589691,135.996719 304.888672,128.332932 
	C298.255463,121.391678 291.509583,114.553787 285.019348,107.481346 
	C277.926422,99.752182 271.069916,91.806023 263.819855,83.330765 
	C252.226730,67.515282 240.633621,51.699806 228.728622,35.233982 
	C227.293167,35.112831 225.745255,34.589722 224.445404,34.953354 
	C221.651855,35.734856 219.029648,37.107849 216.261047,38.002861 
	C197.568939,44.045490 178.424042,45.207096 158.117279,43.029617 
	C156.624405,43.017292 155.088638,43.231297 153.645264,42.957802 
	C138.420486,40.072960 123.210419,37.110359 107.219078,34.011269 
	C90.216583,29.104496 73.214096,24.197720 56.211605,19.290945 
	C56.072781,19.537933 55.933960,19.784922 55.795139,20.031910 
	C67.829369,31.036964 79.863602,42.042019 92.177711,53.681332 
	C103.102531,63.155617 114.027351,72.629898 125.220436,82.727448 
	C133.160599,89.676353 141.049072,96.685768 149.072311,103.537399 
	C151.487976,105.600311 154.278320,107.224503 157.170532,109.672653 
	C164.130920,115.634193 170.972244,121.742310 178.083618,127.517944 
	C185.912430,133.876266 193.989441,139.928970 202.229370,146.736496 
	C207.067429,150.573822 211.824112,154.519501 216.760300,158.226151 
	C227.420334,166.230927 238.172485,174.113052 249.209610,182.663101 
	C252.532104,185.002838 255.808899,187.410889 259.185638,189.669479 
	C269.420135,196.514984 279.693359,203.302643 290.240784,210.739594 
	C307.801117,220.844498 325.361420,230.949387 342.767090,241.704437 
	C339.024780,245.076797 335.192993,248.356430 331.569946,251.852386 
	C328.923523,254.405991 326.551910,257.244385 323.701263,259.308960 
	C319.356781,257.515594 315.062256,255.587280 310.657715,253.956055 
	C300.480896,250.187012 290.250763,246.561981 279.637878,242.235855 
	C276.508942,241.372269 273.413696,240.351639 270.245148,239.672867 
	C257.856506,237.018997 245.444687,234.473190 232.556396,231.208359 
	C225.235901,230.472549 217.921402,229.211304 210.593475,229.127945 
	C200.401917,229.012024 190.200287,229.778717 179.122894,230.029541 
	C171.666519,231.016617 164.192703,231.888397 156.757294,233.013947 
	C139.432083,235.636566 122.435837,239.679901 106.781639,247.735748 
	C88.426590,257.181519 72.593124,269.863251 58.827408,285.431366 
	C45.654030,300.329559 34.816620,316.506226 28.115610,335.174927 
	C25.007441,343.834137 23.434401,353.044342 20.996115,362.842010 
	C20.807270,370.876038 20.034203,378.954407 20.639200,386.928223 
	C21.029152,392.067749 23.441525,397.053802 24.999079,402.859955 
	C25.206327,403.627411 25.233400,404.513489 25.648546,405.144073 
	C30.048765,411.827789 34.510712,418.470825 39.221771,425.731903 
	C44.109955,429.835510 48.998138,433.939087 54.223213,438.663635 
	C60.467506,441.813171 66.711800,444.962677 73.321831,448.747803 
	C80.215462,450.776642 87.109100,452.805450 94.814499,454.998627 
	C104.453522,457.057953 114.119072,458.695587 124.864716,456.970184 
	C139.164108,455.520966 152.603195,451.382843 165.773331,444.000610 
	C169.913162,441.786896 174.115723,439.682037 178.181625,437.339996 
	C193.326172,428.616486 207.250000,418.217743 220.096924,406.382050 
	C225.919647,401.017578 231.758377,395.661194 237.379578,390.089020 
	C252.045486,375.550934 266.690857,360.989502 281.155792,346.252258 
	C289.912781,337.330444 298.318390,328.063751 307.207855,319.592529 
	C311.011353,322.098297 314.844452,324.560455 318.612091,327.119019 
	C326.390961,332.401672 334.134918,337.735657 342.185547,343.670868 
	C354.056946,353.807007 365.928314,363.943146 378.114685,374.699310 
	C380.368042,376.589203 382.785095,378.316986 384.845642,380.397797 
	C392.613892,388.242432 400.266144,396.201904 408.232819,404.727844 
	C409.500183,406.207458 410.743713,407.708313 412.039062,409.162994 
	C417.667755,415.484222 423.311523,421.791962 429.008881,428.802216 
	C434.633118,435.881012 440.257324,442.959839 446.174774,450.673889 
	C452.487640,459.951508 458.746552,469.267120 465.205963,478.441620 
	C465.783478,479.261841 467.870361,479.759491 468.900818,479.396881 
	C474.343658,477.481628 479.672546,475.242462 485.893433,473.013275 
	C496.451050,472.009033 507.000305,470.317810 517.568604,470.189087 
	C528.689148,470.053650 539.827881,471.412415 551.400024,472.802948 
	C552.727478,472.871246 554.108521,472.724518 555.374451,473.039856 
	C577.242981,478.486572 599.111206,483.936005 620.945312,489.518524 
	C626.601135,490.964661 632.140503,492.866241 637.733337,494.558624 
	C638.205444,493.974274 638.677490,493.389954 639.149597,492.805603 
	C637.826904,492.092529 636.308350,491.600555 635.213379,490.630432 
	C628.186035,484.404602 621.219238,478.109314 614.294800,471.768829 
	C605.406128,463.629822 596.639282,455.356628 587.685364,447.290680 
	C584.682922,444.586029 581.268005,442.339325 577.781494,439.271118 
	C566.199585,429.144257 554.617676,419.017365 542.725769,408.285736 
	C533.021545,400.281006 523.317322,392.276245 513.371521,384.206268 
	C513.371521,384.206268 513.226135,384.409973 513.091309,383.749146 
	C512.739990,383.553284 512.388733,383.357422 511.401794,382.878448 
	C509.409943,381.227539 507.464355,379.516754 505.417572,377.937012 
	C499.313843,373.225983 493.170441,368.566437 486.772522,363.269897 
	C478.884186,357.163910 470.995819,351.057922 462.817566,344.316254 
	C459.024628,341.527222 455.296753,338.643921 451.424042,335.970428 
	C445.033325,331.558655 438.549042,327.282349 431.818970,322.321228 
	C417.557617,312.839905 403.296295,303.358551 388.701263,293.266418 
	C376.078552,286.169983 363.455872,279.073547 351.123596,271.377991 
	C352.763184,269.623810 354.402802,267.869629 356.657196,265.836182 
	C360.756256,261.834412 364.855286,257.832611 369.702881,253.983246 
	C374.121704,255.692917 378.540497,257.402588 383.320099,259.738861 
	C389.813812,262.282623 396.197205,265.171051 402.826111,267.292297 
	C413.784119,270.798859 424.900421,273.810547 436.418091,277.675323 
	C442.936096,278.946930 449.408051,280.587402 455.982361,281.408081 
	C467.286652,282.819214 478.654755,283.719299 490.920929,284.972717 
	C508.446930,284.943939 525.810303,283.267944 543.798279,279.937195 
	C551.224487,278.092926 558.752502,276.581207 566.058777,274.345123 
	C593.269287,266.017426 615.553955,250.258591 634.459656,229.161667 
	C647.142090,215.009247 657.774414,199.701370 665.171387,181.326279 
	C667.392212,174.217087 669.613037,167.107910 672.002197,159.190582 
z"/>
<path fill="#119EE2" opacity="1.000000" stroke="none" 
	d="
M201.958328,146.114822 
	C193.989441,139.928970 185.912430,133.876266 178.083618,127.517944 
	C170.972244,121.742310 164.130920,115.634193 157.322556,109.182915 
	C157.992676,108.276917 158.555084,107.905006 159.022491,107.438042 
	C181.504822,84.977585 203.990265,62.520203 226.420486,40.007812 
	C227.542801,38.881386 228.178329,37.269943 229.040497,35.884327 
	C240.633621,51.699806 252.226730,67.515282 263.675110,83.819328 
	C244.901199,102.824295 226.262833,121.331482 207.656143,139.870468 
	C205.662323,141.857025 203.853149,144.028900 201.958328,146.114822 
z"/>
<path fill="#07A7EA" opacity="1.000000" stroke="none" 
	d="
M368.954315,253.830811 
	C364.855286,257.832611 360.756256,261.834412 356.259399,265.635437 
	C351.070465,259.264954 347.775940,258.736389 343.019073,263.491913 
	C285.403351,321.091614 227.784088,378.687805 170.246918,436.365906 
	C168.089752,438.528320 166.757767,441.513947 165.041245,444.115936 
	C152.603195,451.382843 139.164108,455.520966 124.523605,456.578369 
	C126.821640,453.255432 129.338379,450.202362 132.119324,447.412659 
	C154.079102,425.383698 176.114410,403.429901 198.024597,381.351807 
	C199.414307,379.951477 199.951584,377.705170 201.035568,375.532623 
	C208.503891,369.597626 216.033615,364.233704 223.082581,358.298767 
	C230.601349,351.968231 237.813934,345.251923 244.895523,338.429321 
	C257.015656,326.752350 268.929596,314.861389 281.265808,302.972351 
	C295.753571,288.574860 309.905701,274.265350 324.057800,259.955841 
	C326.551910,257.244385 328.923523,254.405991 331.569946,251.852386 
	C335.192993,248.356430 339.024780,245.076797 343.164673,241.410553 
	C344.384369,241.365433 345.206482,241.614182 346.332489,242.042938 
	C348.253693,243.053604 349.875275,243.876175 351.487640,244.716415 
	C357.311523,247.751328 363.132355,250.792191 368.954315,253.830811 
z"/>
<path fill="#3675C4" opacity="1.000000" stroke="none" 
	d="
M21.165428,362.004761 
	C23.434401,353.044342 25.007441,343.834137 28.115610,335.174927 
	C34.816620,316.506226 45.654030,300.329559 58.827408,285.431366 
	C72.593124,269.863251 88.426590,257.181519 106.781639,247.735748 
	C122.435837,239.679901 139.432083,235.636566 156.757294,233.013947 
	C164.192703,231.888397 171.666519,231.016617 179.531525,230.446503 
	C178.758057,232.610886 177.811401,234.590179 176.355759,236.068176 
	C166.786667,245.784256 157.055862,255.341354 147.517593,265.087158 
	C145.986969,266.651093 145.156754,268.900543 143.607361,270.917877 
	C134.563721,273.777954 125.540031,275.733398 117.340355,279.488251 
	C96.059921,289.233154 81.571983,305.857208 71.722282,327.009216 
	C70.568977,326.719482 69.703171,326.602203 69.015793,326.188477 
	C62.342613,322.172028 62.347717,322.154449 56.973701,327.525787 
	C46.743504,337.750916 36.544159,348.007172 26.260508,358.178223 
	C24.764273,359.658081 22.873592,360.739166 21.165428,362.004761 
z"/>
<path fill="#1897DD" opacity="1.000000" stroke="none" 
	d="
M202.093842,146.425659 
	C203.853149,144.028900 205.662323,141.857025 207.656143,139.870468 
	C226.262833,121.331482 244.901199,102.824295 263.820374,84.131172 
	C271.069916,91.806023 277.926422,99.752182 285.019348,107.481346 
	C291.509583,114.553787 298.255463,121.391678 304.665344,128.740753 
	C303.998322,129.367432 303.454407,129.487045 303.125427,129.819427 
	C287.487640,145.618881 271.915924,161.484222 256.188782,177.194000 
	C254.161896,179.218628 251.340378,180.447754 248.886948,182.045364 
	C238.172485,174.113052 227.420334,166.230927 216.760300,158.226151 
	C211.824112,154.519501 207.067429,150.573822 202.093842,146.425659 
z"/>
<path fill="#238BD4" opacity="1.000000" stroke="none" 
	d="
M346.028625,241.862946 
	C345.206482,241.614182 344.384369,241.365433 343.242004,241.085480 
	C325.361420,230.949387 307.801117,220.844498 290.247711,210.114990 
	C291.783478,207.547516 293.122650,205.411728 294.871368,203.692505 
	C308.000702,190.784409 321.257751,178.005814 334.336975,165.047531 
	C335.993591,163.406219 336.850372,160.957642 338.077759,158.883057 
	C353.850464,170.297745 369.624634,181.710388 385.390747,193.134186 
	C386.050964,193.612549 386.635834,194.194931 387.717682,195.069748 
	C388.476562,195.886017 388.773590,196.361389 388.953064,197.165390 
	C375.818115,210.567764 362.778656,223.619690 349.813782,236.745285 
	C348.337799,238.239548 347.280212,240.147064 346.028625,241.862946 
z"/>
<path fill="#109FE3" opacity="1.000000" stroke="none" 
	d="
M513.613098,384.271515 
	C523.317322,392.276245 533.021545,400.281006 542.866699,408.972290 
	C541.729919,411.880951 540.853760,414.499573 539.112061,416.263397 
	C522.633240,432.950867 505.964081,449.450287 489.482361,466.134857 
	C487.587799,468.052765 486.501862,470.769379 485.040955,473.115662 
	C479.672546,475.242462 474.343658,477.481628 468.900818,479.396881 
	C467.870361,479.759491 465.783478,479.261841 465.205963,478.441620 
	C458.746552,469.267120 452.487640,459.951508 446.368408,450.273621 
	C448.359283,448.430878 450.303101,447.136444 451.931488,445.523529 
	C472.518433,425.132874 493.059967,404.696350 513.613098,384.271515 
z"/>
<path fill="#1F90D7" opacity="1.000000" stroke="none" 
	d="
M377.799713,374.079315 
	C365.928314,363.943146 354.056946,353.807007 342.320801,343.169434 
	C345.158936,339.757141 347.779999,336.764893 350.578949,333.949524 
	C362.161072,322.299408 373.825226,310.730713 385.377838,299.051605 
	C386.843079,297.570343 387.827698,295.613647 389.034943,293.877228 
	C403.296295,303.358551 417.557617,312.839905 431.651123,322.787231 
	C429.540558,324.783783 427.425720,326.140991 425.682404,327.872314 
	C411.542877,341.914551 397.498596,356.052704 383.346405,370.082092 
	C381.747742,371.666901 379.660431,372.758850 377.799713,374.079315 
z"/>
<path fill="#1E91D8" opacity="1.000000" stroke="none" 
	d="
M337.919189,158.577911 
	C336.850372,160.957642 335.993591,163.406219 334.336975,165.047531 
	C321.257751,178.005814 308.000702,190.784409 294.871368,203.692505 
	C293.122650,205.411728 291.783478,207.547516 290.103058,209.801605 
	C279.693359,203.302643 269.420135,196.514984 259.185638,189.669479 
	C255.808899,187.410889 252.532104,185.002838 249.048279,182.354233 
	C251.340378,180.447754 254.161896,179.218628 256.188782,177.194000 
	C271.915924,161.484222 287.487640,145.618881 303.125427,129.819427 
	C303.454407,129.487045 303.998322,129.367432 304.777649,129.061417 
	C312.589691,135.996719 320.001129,143.090256 327.573120,150.008057 
	C330.795898,152.952408 334.354584,155.529037 337.919189,158.577911 
z"/>
<path fill="#0BA3E7" opacity="1.000000" stroke="none" 
	d="
M228.884552,35.559158 
	C228.178329,37.269943 227.542801,38.881386 226.420486,40.007812 
	C203.990265,62.520203 181.504822,84.977585 159.022491,107.438042 
	C158.555084,107.905006 157.992676,108.276917 157.185791,108.871422 
	C154.278320,107.224503 151.487976,105.600311 149.072311,103.537399 
	C141.049072,96.685768 133.160599,89.676353 125.237701,82.105133 
	C126.666290,79.658524 127.908775,77.667656 129.517029,76.037666 
	C138.257690,67.178947 147.172256,58.489964 155.812057,49.535191 
	C157.384140,47.905792 157.960403,45.315578 158.996368,43.168911 
	C178.424042,45.207096 197.568939,44.045490 216.261047,38.002861 
	C219.029648,37.107849 221.651855,35.734856 224.445404,34.953354 
	C225.745255,34.589722 227.293167,35.112831 228.884552,35.559158 
z"/>
<path fill="#02ABED" opacity="1.000000" stroke="none" 
	d="
M165.407288,444.058289 
	C166.757767,441.513947 168.089752,438.528320 170.246918,436.365906 
	C227.784088,378.687805 285.403351,321.091614 343.019073,263.491913 
	C347.775940,258.736389 351.070465,259.264954 355.951996,265.775085 
	C354.402802,267.869629 352.763184,269.623810 350.657715,271.767090 
	C349.380615,272.713348 348.438690,273.146912 347.777527,273.846008 
	C336.068481,286.226593 324.349243,298.598267 312.750336,311.081604 
	C310.535797,313.464966 308.825043,316.316467 306.881866,318.951996 
	C298.318390,328.063751 289.912781,337.330444 281.155792,346.252258 
	C266.690857,360.989502 252.045486,375.550934 237.379578,390.089020 
	C231.758377,395.661194 225.919647,401.017578 220.096924,406.382050 
	C207.250000,418.217743 193.326172,428.616486 178.181625,437.339996 
	C174.115723,439.682037 169.913162,441.786896 165.407288,444.058289 
z"/>
<path fill="#3675C4" opacity="1.000000" stroke="none" 
	d="
M664.816101,181.998245 
	C657.774414,199.701370 647.142090,215.009247 634.459656,229.161667 
	C615.553955,250.258591 593.269287,266.017426 566.058777,274.345123 
	C558.752502,276.581207 551.224487,278.092926 543.487732,279.564148 
	C544.067261,278.011963 544.838013,276.715454 545.865234,275.671204 
	C562.243103,259.021515 578.680969,242.430679 595.014465,225.737686 
	C596.633911,224.082581 597.661499,221.848343 599.064758,219.620193 
	C599.739075,218.892273 600.312378,218.427078 601.259521,217.943741 
	C603.128662,217.293976 604.956665,217.015411 606.064148,215.972031 
	C612.187927,210.202713 618.418701,204.501846 624.043152,198.263916 
	C627.673645,194.237503 631.026611,193.884598 635.247070,196.637146 
	C636.218445,197.270630 637.229370,197.843140 638.206726,198.467728 
	C641.452698,200.541946 644.325684,200.356506 647.099915,197.444641 
	C651.102539,193.243408 655.190674,189.111832 659.441528,185.165115 
	C660.929993,183.783112 663.007568,183.035522 664.816101,181.998245 
z"/>
<path fill="#1A95DB" opacity="1.000000" stroke="none" 
	d="
M377.957214,374.389313 
	C379.660431,372.758850 381.747742,371.666901 383.346405,370.082092 
	C397.498596,356.052704 411.542877,341.914551 425.682404,327.872314 
	C427.425720,326.140991 429.540558,324.783783 431.793732,323.101074 
	C438.549042,327.282349 445.033325,331.558655 451.424042,335.970428 
	C455.296753,338.643921 459.024628,341.527222 462.673035,344.811615 
	C445.093048,362.636261 427.600342,379.908966 410.322449,397.393951 
	C408.813019,398.921417 408.715302,401.843842 407.961853,404.118347 
	C400.266144,396.201904 392.613892,388.242432 384.845642,380.397797 
	C382.785095,378.316986 380.368042,376.589203 377.957214,374.389313 
z"/>
<path fill="#149BE0" opacity="1.000000" stroke="none" 
	d="
M513.492310,384.238892 
	C493.059967,404.696350 472.518433,425.132874 451.931488,445.523529 
	C450.303101,447.136444 448.359283,448.430878 446.221802,449.955994 
	C440.257324,442.959839 434.633118,435.881012 429.104004,428.140076 
	C428.596222,423.236084 430.883118,420.485687 433.719177,417.693817 
	C446.510529,405.101807 459.174103,392.379395 471.826630,379.647278 
	C476.973358,374.468079 481.974945,369.144623 487.042542,363.886780 
	C493.170441,368.566437 499.313843,373.225983 505.417572,377.937012 
	C507.464355,379.516754 509.409943,381.227539 511.928986,383.216309 
	C512.712830,383.839417 512.969482,384.124695 513.226135,384.409973 
	C513.226135,384.409973 513.371521,384.206268 513.492310,384.238892 
z"/>
<path fill="#0BA3E7" opacity="1.000000" stroke="none" 
	d="
M485.467224,473.064484 
	C486.501862,470.769379 487.587799,468.052765 489.482361,466.134857 
	C505.964081,449.450287 522.633240,432.950867 539.112061,416.263397 
	C540.853760,414.499573 541.729919,411.880951 543.021729,409.274658 
	C554.617676,419.017365 566.199585,429.144257 577.828125,439.917236 
	C576.675049,442.116791 575.618225,443.810913 574.251343,445.199921 
	C567.630188,451.928070 560.803467,458.459198 554.335083,465.328918 
	C552.676636,467.090240 552.056091,469.828735 550.958679,472.118317 
	C539.827881,471.412415 528.689148,470.053650 517.568604,470.189087 
	C507.000305,470.317810 496.451050,472.009033 485.467224,473.064484 
z"/>
<path fill="#238BD4" opacity="1.000000" stroke="none" 
	d="
M307.044861,319.272278 
	C308.825043,316.316467 310.535797,313.464966 312.750336,311.081604 
	C324.349243,298.598267 336.068481,286.226593 347.777527,273.846008 
	C348.438690,273.146912 349.380615,272.713348 350.512512,272.066650 
	C363.455872,279.073547 376.078552,286.169983 388.868103,293.571838 
	C387.827698,295.613647 386.843079,297.570343 385.377838,299.051605 
	C373.825226,310.730713 362.161072,322.299408 350.578949,333.949524 
	C347.779999,336.764893 345.158936,339.757141 342.174683,342.858276 
	C334.134918,337.735657 326.390961,332.401672 318.612091,327.119019 
	C314.844452,324.560455 311.011353,322.098297 307.044861,319.272278 
z"/>
<path fill="#2C82CD" opacity="1.000000" stroke="none" 
	d="
M435.950043,277.030762 
	C424.900421,273.810547 413.784119,270.798859 402.826111,267.292297 
	C396.197205,265.171051 389.813812,262.282623 383.222778,259.085693 
	C384.324005,256.880829 385.374359,255.182083 386.744568,253.800644 
	C397.230133,243.229523 407.815063,232.756790 418.271301,222.156967 
	C420.098633,220.304504 421.465942,217.998215 423.410370,215.953674 
	C432.757568,220.109024 441.656830,224.409271 450.749664,228.251465 
	C457.704468,231.190201 464.903961,233.549713 471.965027,236.515137 
	C470.763123,238.602646 469.827148,240.574585 468.380371,242.043427 
	C458.747406,251.823105 448.950836,261.442047 439.354645,271.257141 
	C437.837982,272.808411 437.066193,275.087952 435.950043,277.030762 
z"/>
<path fill="#1799DE" opacity="1.000000" stroke="none" 
	d="
M486.907532,363.578339 
	C481.974945,369.144623 476.973358,374.468079 471.826630,379.647278 
	C459.174103,392.379395 446.510529,405.101807 433.719177,417.693817 
	C430.883118,420.485687 428.596222,423.236084 429.074493,427.791260 
	C423.311523,421.791962 417.667755,415.484222 412.039062,409.162994 
	C410.743713,407.708313 409.500183,406.207458 408.097351,404.423096 
	C408.715302,401.843842 408.813019,398.921417 410.322449,397.393951 
	C427.600342,379.908966 445.093048,362.636261 462.817993,345.129456 
	C470.995819,351.057922 478.884186,357.163910 486.907532,363.578339 
z"/>
<path fill="#07A7EA" opacity="1.000000" stroke="none" 
	d="
M527.958679,69.883537 
	C538.041138,65.930382 548.123657,61.977215 558.514282,58.414841 
	C557.577148,60.342136 556.458435,62.005192 555.068115,63.396797 
	C508.474518,110.034645 461.863647,156.655243 415.207489,203.230484 
	C413.353577,205.081238 411.033081,206.464615 408.587036,207.986145 
	C405.156403,205.979263 402.068756,204.052032 399.064148,201.788025 
	C400.983612,199.581894 402.805756,197.698273 404.658478,195.845276 
	C443.686157,156.812057 482.741913,117.806793 521.690735,78.695023 
	C524.199524,76.175674 525.888367,72.839645 527.958679,69.883537 
z"/>
<path fill="#2A84CE" opacity="1.000000" stroke="none" 
	d="
M323.879517,259.632385 
	C309.905701,274.265350 295.753571,288.574860 280.901886,302.943817 
	C267.466888,296.939758 254.731445,290.876282 242.027985,284.465820 
	C243.235962,282.383331 244.177979,280.416992 245.625610,278.949402 
	C255.836639,268.597656 266.183014,258.379395 276.398041,248.031540 
	C277.856323,246.554306 278.839294,244.607864 280.042236,242.878555 
	C290.250763,246.561981 300.480896,250.187012 310.657715,253.956055 
	C315.062256,255.587280 319.356781,257.515594 323.879517,259.632385 
z"/>
<path fill="#307CC9" opacity="1.000000" stroke="none" 
	d="
M436.184082,277.353027 
	C437.066193,275.087952 437.837982,272.808411 439.354645,271.257141 
	C448.950836,261.442047 458.747406,251.823105 468.380371,242.043427 
	C469.827148,240.574585 470.763123,238.602646 472.376312,236.445465 
	C473.481873,236.032867 474.188721,235.889908 474.805054,236.065186 
	C491.869629,240.918274 509.323212,243.245621 526.966431,244.514999 
	C523.885559,248.460114 521.066528,252.289413 517.737915,255.607544 
	C509.674286,263.645752 501.313110,271.385071 493.223633,279.398102 
	C491.774658,280.833344 491.053345,283.003204 489.996094,284.833893 
	C478.654755,283.719299 467.286652,282.819214 455.982361,281.408081 
	C449.408051,280.587402 442.936096,278.946930 436.184082,277.353027 
z"/>
<path fill="#2E7ECA" opacity="1.000000" stroke="none" 
	d="
M279.840088,242.557220 
	C278.839294,244.607864 277.856323,246.554306 276.398041,248.031540 
	C266.183014,258.379395 255.836639,268.597656 245.625610,278.949402 
	C244.177979,280.416992 243.235962,282.383331 241.668213,284.403748 
	C234.179062,282.417114 227.153580,279.878204 219.965286,277.944427 
	C211.705612,275.722412 203.301788,274.036102 194.993927,271.751099 
	C198.561920,267.338593 201.916168,263.115662 205.667099,259.280762 
	C214.692993,250.052856 223.904709,241.006699 233.041473,231.887222 
	C245.444687,234.473190 257.856506,237.018997 270.245148,239.672867 
	C273.413696,240.351639 276.508942,241.372269 279.840088,242.557220 
z"/>
<path fill="#02ABED" opacity="1.000000" stroke="none" 
	d="
M527.593140,69.941208 
	C525.888367,72.839645 524.199524,76.175674 521.690735,78.695023 
	C482.741913,117.806793 443.686157,156.812057 404.658478,195.845276 
	C402.805756,197.698273 400.983612,199.581894 398.723694,201.684662 
	C395.223633,200.224304 392.147125,198.530533 389.070648,196.836761 
	C388.773590,196.361389 388.476562,195.886017 388.041992,195.166870 
	C390.674866,191.710312 393.299591,188.357117 396.239105,185.307312 
	C416.566315,164.217758 436.516388,142.738510 457.455414,122.272278 
	C478.350708,101.848808 500.629486,82.958656 527.593140,69.941208 
z"/>
<path fill="#2688D1" opacity="1.000000" stroke="none" 
	d="
M388.953064,197.165390 
	C392.147125,198.530533 395.223633,200.224304 398.640594,202.021439 
	C402.068756,204.052032 405.156403,205.979263 408.825012,208.208511 
	C410.955170,209.315231 412.504395,210.119934 414.377869,211.069489 
	C417.483337,212.776718 420.264526,214.339127 423.045715,215.901520 
	C421.465942,217.998215 420.098633,220.304504 418.271301,222.156967 
	C407.815063,232.756790 397.230133,243.229523 386.744568,253.800644 
	C385.374359,255.182083 384.324005,256.880829 383.042419,258.772400 
	C378.540497,257.402588 374.121704,255.692917 369.328613,253.907028 
	C363.132355,250.792191 357.311523,247.751328 351.487640,244.716415 
	C349.875275,243.876175 348.253693,243.053604 346.332489,242.042938 
	C347.280212,240.147064 348.337799,238.239548 349.813782,236.745285 
	C362.778656,223.619690 375.818115,210.567764 388.953064,197.165390 
z"/>
<path fill="#3477C5" opacity="1.000000" stroke="none" 
	d="
M490.458496,284.903320 
	C491.053345,283.003204 491.774658,280.833344 493.223633,279.398102 
	C501.313110,271.385071 509.674286,263.645752 517.737915,255.607544 
	C521.066528,252.289413 523.885559,248.460114 527.429443,244.445557 
	C554.633484,244.896362 578.405090,237.116333 598.963806,219.882904 
	C597.661499,221.848343 596.633911,224.082581 595.014465,225.737686 
	C578.680969,242.430679 562.243103,259.021515 545.865234,275.671204 
	C544.838013,276.715454 544.067261,278.011963 543.088501,279.511169 
	C525.810303,283.267944 508.446930,284.943939 490.458496,284.903320 
z"/>
<path fill="#327AC7" opacity="1.000000" stroke="none" 
	d="
M232.798935,231.547791 
	C223.904709,241.006699 214.692993,250.052856 205.667099,259.280762 
	C201.916168,263.115662 198.561920,267.338593 194.558578,271.704895 
	C184.280350,271.348938 174.479416,270.395874 164.658386,270.092163 
	C157.787384,269.879639 150.888947,270.554535 144.002747,270.833099 
	C145.156754,268.900543 145.986969,266.651093 147.517593,265.087158 
	C157.055862,255.341354 166.786667,245.784256 176.355759,236.068176 
	C177.811401,234.590179 178.758057,232.610886 179.971558,230.515533 
	C190.200287,229.778717 200.401917,229.012024 210.593475,229.127945 
	C217.921402,229.211304 225.235901,230.472549 232.798935,231.547791 
z"/>
<path fill="#0BA3E7" opacity="1.000000" stroke="none" 
	d="
M414.053619,210.924652 
	C412.504395,210.119934 410.955170,209.315231 409.167969,208.288147 
	C411.033081,206.464615 413.353577,205.081238 415.207489,203.230484 
	C461.863647,156.655243 508.474518,110.034645 555.068115,63.396797 
	C556.458435,62.005192 557.577148,60.342136 558.910400,58.484993 
	C566.024231,57.451679 573.050232,56.739010 580.458252,56.428581 
	C579.669800,58.610565 578.759827,60.649105 577.288818,62.130569 
	C559.967285,79.575378 542.551941,96.926994 525.192871,114.334572 
	C523.371948,116.160561 521.752441,118.187424 519.873535,120.429497 
	C516.143188,122.658325 512.415039,124.328835 509.041107,126.539909 
	C487.960205,140.355194 468.611420,156.405457 450.166016,173.493912 
	C438.460419,184.338440 427.489929,195.978058 416.249756,207.320526 
	C415.286377,208.292664 414.774963,209.712692 414.053619,210.924652 
z"/>
<path fill="#109FE3" opacity="1.000000" stroke="none" 
	d="
M200.885406,375.852417 
	C199.951584,377.705170 199.414307,379.951477 198.024597,381.351807 
	C176.114410,403.429901 154.079102,425.383698 132.119324,447.412659 
	C129.338379,450.202362 126.821640,453.255432 124.093613,456.510925 
	C114.119072,458.695587 104.453522,457.057953 94.496460,454.595917 
	C95.423317,452.657349 96.545105,450.998962 97.932312,449.604706 
	C110.725906,436.746002 123.614166,423.981018 136.339203,411.055176 
	C138.252319,409.111877 139.465088,406.479095 141.411804,404.096344 
	C163.998093,399.852295 183.160767,389.359650 200.885406,375.852417 
z"/>
<path fill="#2E7ECA" opacity="1.000000" stroke="none" 
	d="
M21.080772,362.423401 
	C22.873592,360.739166 24.764273,359.658081 26.260508,358.178223 
	C36.544159,348.007172 46.743504,337.750916 56.973701,327.525787 
	C62.347717,322.154449 62.342613,322.172028 69.015793,326.188477 
	C69.703171,326.602203 70.568977,326.719482 71.678398,327.408142 
	C68.441933,338.035980 68.456390,348.446808 69.752449,358.990723 
	C67.146622,360.625763 64.631622,361.952454 62.712162,363.873993 
	C50.052456,376.547485 37.520847,389.348907 24.947500,402.108643 
	C23.441525,397.053802 21.029152,392.067749 20.639200,386.928223 
	C20.034203,378.954407 20.807270,370.876038 21.080772,362.423401 
z"/>
<path fill="#07A7EA" opacity="1.000000" stroke="none" 
	d="
M551.179321,472.460632 
	C552.056091,469.828735 552.676636,467.090240 554.335083,465.328918 
	C560.803467,458.459198 567.630188,451.928070 574.251343,445.199921 
	C575.618225,443.810913 576.675049,442.116791 577.958252,440.223328 
	C581.268005,442.339325 584.682922,444.586029 587.685364,447.290680 
	C596.639282,455.356628 605.406128,463.629822 614.294800,471.768829 
	C621.219238,478.109314 628.186035,484.404602 635.213379,490.630432 
	C636.308350,491.600555 637.826904,492.092529 639.149597,492.805603 
	C638.677490,493.389954 638.205444,493.974274 637.733337,494.558624 
	C632.140503,492.866241 626.601135,490.964661 620.945312,489.518524 
	C599.111206,483.936005 577.242981,478.486572 555.374451,473.039856 
	C554.108521,472.724518 552.727478,472.871246 551.179321,472.460632 
z"/>
<path fill="#07A7EA" opacity="1.000000" stroke="none" 
	d="
M158.556824,43.099266 
	C157.960403,45.315578 157.384140,47.905792 155.812057,49.535191 
	C147.172256,58.489964 138.257690,67.178947 129.517029,76.037666 
	C127.908775,77.667656 126.666290,79.658524 125.103577,81.793495 
	C114.027351,72.629898 103.102531,63.155617 92.281120,53.131325 
	C95.236458,49.573635 98.221199,46.678856 100.901848,43.525570 
	C103.432968,40.548164 105.644302,37.298901 107.996300,34.169220 
	C123.210419,37.110359 138.420486,40.072960 153.645264,42.957802 
	C155.088638,43.231297 156.624405,43.017292 158.556824,43.099266 
z"/>
<path fill="#1799DE" opacity="1.000000" stroke="none" 
	d="
M606.994080,60.166054 
	C615.777100,63.728664 624.560120,67.291267 633.580444,71.331009 
	C631.984009,73.933388 630.257690,76.163673 628.298828,78.166611 
	C616.549988,90.180107 604.747742,102.141327 592.589294,114.056839 
	C582.962952,109.626183 573.161621,107.863541 563.026855,107.485306 
	C564.238159,105.392830 565.179077,103.412712 566.634460,101.941528 
	C578.774231,89.670128 591.031555,77.515121 603.184814,65.256966 
	C604.662659,63.766338 605.734253,61.872849 606.994080,60.166054 
z"/>
<path fill="#1F90D7" opacity="1.000000" stroke="none" 
	d="
M592.963440,114.120056 
	C604.747742,102.141327 616.549988,90.180107 628.298828,78.166611 
	C630.257690,76.163673 631.984009,73.933388 633.904785,71.487724 
	C640.990784,76.845406 647.989807,82.523491 654.844177,88.841988 
	C640.760742,103.335045 626.821960,117.187691 612.576599,130.898376 
	C605.834473,125.210983 599.398926,119.665527 592.963440,114.120056 
z"/>
<path fill="#109FE3" opacity="1.000000" stroke="none" 
	d="
M606.638428,59.972954 
	C605.734253,61.872849 604.662659,63.766338 603.184814,65.256966 
	C591.031555,77.515121 578.774231,89.670128 566.634460,101.941528 
	C565.179077,103.412712 564.238159,105.392830 562.604675,107.553238 
	C558.790466,108.474838 555.300415,108.563210 552.093872,109.561790 
	C541.354553,112.906273 530.716370,116.575943 520.039490,120.121086 
	C521.752441,118.187424 523.371948,116.160561 525.192871,114.334572 
	C542.551941,96.926994 559.967285,79.575378 577.288818,62.130569 
	C578.759827,60.649105 579.669800,58.610565 580.919189,56.497589 
	C589.426270,57.369526 597.854553,58.574688 606.638428,59.972954 
z"/>
<path fill="#2688D1" opacity="1.000000" stroke="none" 
	d="
M24.973291,402.484314 
	C37.520847,389.348907 50.052456,376.547485 62.712162,363.873993 
	C64.631622,361.952454 67.146622,360.625763 70.071503,359.198975 
	C74.183876,366.876251 77.610901,374.378510 80.860199,382.173035 
	C67.988235,394.943695 55.266853,407.394806 42.636120,419.937134 
	C41.153744,421.409119 40.170357,423.383575 38.955654,425.125092 
	C34.510712,418.470825 30.048765,411.827789 25.648546,405.144073 
	C25.233400,404.513489 25.206327,403.627411 24.973291,402.484314 
z"/>
<path fill="#2688D1" opacity="1.000000" stroke="none" 
	d="
M612.883179,131.040344 
	C626.821960,117.187691 640.760742,103.335045 654.875671,89.188858 
	C655.051819,88.895325 655.536804,88.999420 655.898621,89.228065 
	C656.438965,89.659615 656.639160,89.838303 656.861023,89.992775 
	C660.819641,96.094994 664.778259,102.197212 668.465210,108.737503 
	C666.666138,110.413567 665.017517,111.529678 663.630310,112.908730 
	C652.129578,124.341805 640.664551,135.810883 629.223145,147.303314 
	C627.382263,149.152374 625.711975,151.171249 623.640991,152.910751 
	C619.840515,145.486694 616.361877,138.263535 612.883179,131.040344 
z"/>
<path fill="#1F90D7" opacity="1.000000" stroke="none" 
	d="
M39.088715,425.428497 
	C40.170357,423.383575 41.153744,421.409119 42.636120,419.937134 
	C55.266853,407.394806 67.988235,394.943695 81.172134,382.323334 
	C86.453682,386.748749 91.245560,391.316132 95.955185,396.223602 
	C95.137039,397.651367 94.552025,398.889038 93.642395,399.804016 
	C81.801781,411.714661 69.936043,423.600647 58.006054,435.421631 
	C56.876320,436.541046 55.270912,437.180420 53.886330,438.042664 
	C48.998138,433.939087 44.109955,429.835510 39.088715,425.428497 
z"/>
<path fill="#149BE0" opacity="1.000000" stroke="none" 
	d="
M141.001831,404.165253 
	C139.465088,406.479095 138.252319,409.111877 136.339203,411.055176 
	C123.614166,423.981018 110.725906,436.746002 97.932312,449.604706 
	C96.545105,450.998962 95.423317,452.657349 94.090576,454.513733 
	C87.109100,452.805450 80.215462,450.776642 73.222923,448.090332 
	C74.440674,445.763947 75.609848,443.948730 77.097496,442.449463 
	C88.170830,431.289764 99.336548,420.221588 110.388718,409.041077 
	C111.849823,407.563019 112.833153,405.612671 114.466675,403.934174 
	C123.597679,404.046600 132.299759,404.105927 141.001831,404.165253 
z"/>
<path fill="#1A95DB" opacity="1.000000" stroke="none" 
	d="
M114.037750,403.881042 
	C112.833153,405.612671 111.849823,407.563019 110.388718,409.041077 
	C99.336548,420.221588 88.170830,431.289764 77.097496,442.449463 
	C75.609848,443.948730 74.440674,445.763947 73.040054,447.772522 
	C66.711800,444.962677 60.467506,441.813171 54.054775,438.353149 
	C55.270912,437.180420 56.876320,436.541046 58.006054,435.421631 
	C69.936043,423.600647 81.801781,411.714661 93.642395,399.804016 
	C94.552025,398.889038 95.137039,397.651367 96.278778,396.376709 
	C102.469009,398.753510 108.253387,401.317261 114.037750,403.881042 
z"/>
<path fill="#2C82CD" opacity="1.000000" stroke="none" 
	d="
M623.962891,153.111649 
	C625.711975,151.171249 627.382263,149.152374 629.223145,147.303314 
	C640.664551,135.810883 652.129578,124.341805 663.630310,112.908730 
	C665.017517,111.529678 666.666138,110.413567 668.513794,109.086426 
	C670.535706,114.399216 672.237427,119.801155 673.566406,125.689590 
	C671.666687,127.413345 670.018066,128.528397 668.631653,129.907028 
	C656.784607,141.687195 645.045288,153.576492 633.119080,165.275513 
	C630.814514,167.536209 627.834595,169.108429 625.099243,170.538559 
	C624.675903,164.423126 624.319397,158.767395 623.962891,153.111649 
z"/>
<path fill="#2E7ECA" opacity="1.000000" stroke="none" 
	d="
M625.166138,170.998230 
	C627.834595,169.108429 630.814514,167.536209 633.119080,165.275513 
	C645.045288,153.576492 656.784607,141.687195 668.631653,129.907028 
	C670.018066,128.528397 671.666687,127.413345 673.513916,126.087135 
	C674.125061,131.173172 674.415955,136.348160 674.043274,141.849197 
	C671.820068,143.383377 670.113098,144.443069 668.724121,145.822876 
	C656.552673,157.914154 644.469421,170.094269 632.273254,182.160355 
	C630.409546,184.004150 628.102112,185.399323 625.734863,186.840607 
	C624.608948,186.107025 623.748230,185.534836 622.934387,184.550613 
	C623.709595,179.758453 624.437866,175.378342 625.166138,170.998230 
z"/>
<path fill="#327AC7" opacity="1.000000" stroke="none" 
	d="
M625.999939,187.002014 
	C628.102112,185.399323 630.409546,184.004150 632.273254,182.160355 
	C644.469421,170.094269 656.552673,157.914154 668.724121,145.822876 
	C670.113098,144.443069 671.820068,143.383377 673.715881,142.104218 
	C673.368835,147.752335 672.685486,153.471451 671.597839,159.683487 
	C669.664062,161.415970 668.015808,162.535660 666.624512,163.914658 
	C657.916077,172.546066 649.268677,181.239120 640.593262,189.903946 
	C635.787476,194.703857 635.153381,194.800354 629.825378,190.833832 
	C628.393127,189.767593 627.266724,188.290482 625.999939,187.002014 
z"/>
<path fill="#3477C5" opacity="1.000000" stroke="none" 
	d="
M625.734863,186.840607 
	C627.266724,188.290482 628.393127,189.767593 629.825378,190.833832 
	C635.153381,194.800354 635.787476,194.703857 640.593262,189.903946 
	C649.268677,181.239120 657.916077,172.546066 666.624512,163.914658 
	C668.015808,162.535660 669.664062,161.415970 671.513672,160.087555 
	C669.613037,167.107910 667.392212,174.217087 664.993774,181.662262 
	C663.007568,183.035522 660.929993,183.783112 659.441528,185.165115 
	C655.190674,189.111832 651.102539,193.243408 647.099915,197.444641 
	C644.325684,200.356506 641.452698,200.541946 638.206726,198.467728 
	C637.229370,197.843140 636.218445,197.270630 635.247070,196.637146 
	C631.026611,193.884598 627.673645,194.237503 624.043152,198.263916 
	C618.418701,204.501846 612.187927,210.202713 606.064148,215.972031 
	C604.956665,217.015411 603.128662,217.293976 601.404419,217.638641 
	C603.472717,214.808075 606.176270,212.522934 607.989807,209.671707 
	C613.150024,201.558960 617.947327,193.215378 622.887451,184.962662 
	C623.748230,185.534836 624.608948,186.107025 625.734863,186.840607 
z"/>
<path fill="#02ABED" opacity="1.000000" stroke="none" 
	d="
M107.607689,34.090244 
	C105.644302,37.298901 103.432968,40.548164 100.901848,43.525570 
	C98.221199,46.678856 95.236458,49.573635 92.141182,52.814198 
	C79.863602,42.042019 67.829369,31.036964 55.795139,20.031910 
	C55.933960,19.784922 56.072781,19.537933 56.211605,19.290945 
	C73.214096,24.197720 90.216583,29.104496 107.607689,34.090244 
z"/>
<path fill="#109FE3" opacity="1.000000" stroke="none" 
	d="
M513.158691,384.079559 
	C512.969482,384.124695 512.712830,383.839417 512.246826,383.357849 
	C512.388733,383.357422 512.739990,383.553284 513.158691,384.079559 
z"/>
<path fill="#1F90D7" opacity="1.000000" stroke="none" 
	d="
M656.887573,89.729126 
	C656.639160,89.838303 656.438965,89.659615 656.136719,89.297417 
	C656.313416,89.247246 656.613770,89.356369 656.887573,89.729126 
z"/>
<path fill="#000000" opacity="1.000000" stroke="none" 
	d="
M114.466675,403.934174 
	C108.253387,401.317261 102.469009,398.753510 96.361038,396.036652 
	C91.245560,391.316132 86.453682,386.748749 81.349869,382.031067 
	C77.610901,374.378510 74.183876,366.876251 70.437790,359.165741 
	C68.456390,348.446808 68.441933,338.035980 72.048698,327.443054 
	C81.571983,305.857208 96.059921,289.233154 117.340355,279.488251 
	C125.540031,275.733398 134.563721,273.777954 143.607361,270.917877 
	C150.888947,270.554535 157.787384,269.879639 164.658386,270.092163 
	C174.479416,270.395874 184.280350,271.348938 194.525238,272.070923 
	C203.301788,274.036102 211.705612,275.722412 219.965286,277.944427 
	C227.153580,279.878204 234.179062,282.417114 241.636261,284.750732 
	C254.731445,290.876282 267.466888,296.939758 280.566223,303.031799 
	C268.929596,314.861389 257.015656,326.752350 244.895523,338.429321 
	C237.813934,345.251923 230.601349,351.968231 223.082581,358.298767 
	C216.033615,364.233704 208.503891,369.597626 201.035553,375.532623 
	C183.160767,389.359650 163.998093,399.852295 141.411804,404.096344 
	C132.299759,404.105927 123.597679,404.046600 114.466675,403.934174 
z"/>
<path fill="#000000" opacity="1.000000" stroke="none" 
	d="
M622.934387,184.550613 
	C617.947327,193.215378 613.150024,201.558960 607.989807,209.671707 
	C606.176270,212.522934 603.472717,214.808075 601.030640,217.656799 
	C600.312378,218.427078 599.739075,218.892273 599.064758,219.620193 
	C578.405090,237.116333 554.633484,244.896362 527.459412,244.097244 
	C509.323212,243.245621 491.869629,240.918274 474.805054,236.065186 
	C474.188721,235.889908 473.481873,236.032867 472.405945,236.097168 
	C464.903961,233.549713 457.704468,231.190201 450.749664,228.251465 
	C441.656830,224.409271 432.757568,220.109024 423.410370,215.953690 
	C420.264526,214.339127 417.483337,212.776718 414.377869,211.069489 
	C414.774963,209.712692 415.286377,208.292664 416.249756,207.320526 
	C427.489929,195.978058 438.460419,184.338440 450.166016,173.493912 
	C468.611420,156.405457 487.960205,140.355194 509.041107,126.539909 
	C512.415039,124.328835 516.143188,122.658325 519.873535,120.429497 
	C530.716370,116.575943 541.354553,112.906273 552.093872,109.561790 
	C555.300415,108.563210 558.790466,108.474838 562.572754,107.901482 
	C573.161621,107.863541 582.962952,109.626183 592.589294,114.056847 
	C599.398926,119.665527 605.834473,125.210983 612.576538,130.898407 
	C616.361877,138.263535 619.840515,145.486694 623.640991,152.910751 
	C624.319397,158.767395 624.675903,164.423126 625.099243,170.538544 
	C624.437866,175.378342 623.709595,179.758453 622.934387,184.550613 
z"/>
</svg>