<svg version="1.1" id="Layer_1" xmlns="http://www.w3.org/2000/svg" xmlns:xlink="http://www.w3.org/1999/xlink" x="0px" y="0px"
	 width="100%" viewBox="0 0 203 52" enable-background="new 0 0 203 52" xml:space="preserve">
<path fill="#000000" opacity="1.000000" stroke="none" 
	d="
M166.000000,53.000000 
	C156.645767,53.000000 147.291550,53.000000 137.175278,52.681892 
	C137.367859,51.882931 138.299438,51.347954 139.280853,50.929985 
	C145.748169,48.175629 150.173416,43.309898 149.734192,36.911293 
	C146.032455,38.265530 141.483414,34.346069 138.350464,39.872684 
	C137.208435,41.887260 133.876511,43.693607 131.543930,43.693295 
	C129.445282,43.693012 126.236847,41.507538 125.496086,39.540844 
	C124.231598,36.183666 123.776718,32.119061 124.371284,28.585411 
	C124.891792,25.492018 126.738289,22.228632 131.002747,21.962181 
	C134.684616,21.732130 137.452820,23.235582 138.687531,26.463413 
	C139.990829,29.870523 142.540985,29.036911 144.820724,28.904591 
	C146.525848,28.805620 148.190186,28.003954 150.511139,27.329706 
	C148.825150,24.506639 147.690201,21.313543 145.506744,19.207474 
	C140.250290,14.137319 133.849121,12.775799 126.670151,14.770391 
	C119.422272,16.784130 115.064484,20.831356 113.877510,28.690376 
	C112.015869,41.016361 115.538139,47.476364 127.039474,51.100578 
	C127.512215,51.249546 127.686607,52.345333 128.000000,53.000000 
	C110.312439,53.000000 92.624878,53.000000 74.173080,52.671616 
	C74.048271,51.899075 74.639214,51.175053 75.334724,51.054535 
	C81.545181,49.978382 85.268898,46.332932 87.111794,39.936470 
	C84.797318,39.936470 82.811699,39.838112 80.840828,39.966408 
	C79.148270,40.076595 76.962410,39.855556 75.873009,40.797165 
	C69.285187,46.491249 63.522839,44.699230 61.446121,35.816605 
	C70.299538,35.816605 79.091743,35.816605 88.254845,35.816605 
	C87.789650,33.598293 87.141724,31.730911 87.045731,29.835573 
	C86.664963,22.317957 82.791435,17.411390 75.853737,15.061223 
	C68.174950,12.460009 60.682999,13.697339 55.279625,19.619980 
	C47.941254,27.663561 48.268841,47.511520 64.042198,51.104836 
	C64.482529,51.205147 64.686050,52.344925 65.000000,53.000000 
	C43.752647,53.000000 22.505293,53.000000 1.000000,53.000000 
	C1.000000,38.313446 1.000000,23.625380 1.304133,8.178795 
	C3.402877,10.249763 5.392378,12.975953 6.956780,15.927460 
	C12.377300,26.154179 17.711025,36.428356 22.938711,46.754875 
	C24.354822,49.552197 25.872322,51.116287 29.424410,51.172829 
	C32.809196,51.226707 33.316669,49.205658 34.434307,47.080208 
	C41.239712,34.138191 48.124908,21.238150 54.960026,8.311700 
	C55.784424,6.752610 56.467693,5.118896 57.377026,3.176635 
	C52.795406,3.176635 49.015060,3.176635 45.422268,3.176635 
	C40.010719,13.974668 34.707512,24.556528 28.931620,36.081562 
	C24.663809,27.882896 20.132509,20.807579 17.212542,13.120212 
	C14.161356,5.087391 9.725981,1.076644 1.000000,3.000000 
	C1.166667,2.333333 1.229735,1.149261 1.518317,1.091479 
	C2.640014,0.866886 3.833333,1.000000 5.000000,1.000000 
	C70.000000,1.000000 135.000000,0.994037 199.999969,1.041710 
	C201.333542,1.042689 202.666672,1.666668 203.622391,2.844622 
	C199.912918,3.394638 196.581055,3.100035 193.281982,2.808331 
	C193.281982,19.327547 193.281982,35.059887 193.281982,51.000000 
	C197.042114,51.000000 200.521057,51.000000 204.000000,51.000000 
	C204.607132,53.394588 202.912292,52.997536 201.564529,52.998123 
	C193.022125,53.001831 184.479721,53.000000 175.173065,52.671646 
	C175.382172,51.894634 176.329956,51.376038 177.333206,51.009056 
	C182.513657,49.114079 186.743912,46.302689 188.198914,40.276192 
	C187.218155,40.157421 186.576492,40.070724 185.932831,40.003242 
	C181.979080,39.588722 178.091873,38.052944 174.940216,42.767147 
	C174.026993,44.133152 169.257950,44.007816 166.925049,43.007309 
	C164.924438,42.149311 163.878662,39.064907 162.410614,36.965111 
	C162.824539,36.567047 163.238449,36.168987 163.652374,35.770924 
	C172.081589,35.770924 180.510818,35.770924 189.423630,35.770924 
	C188.892136,32.927990 188.363647,30.560612 188.016113,28.166964 
	C185.921921,13.743178 170.051193,10.623153 159.622284,17.059692 
	C152.494705,21.458714 150.962601,28.954115 152.167618,36.551033 
	C153.272293,43.515385 156.882401,49.205822 164.544922,51.069263 
	C165.150635,51.216568 165.520523,52.333626 166.000000,53.000000 
M112.953323,22.220127 
	C112.953323,19.936157 112.953323,17.652189 112.953323,14.377279 
	C108.632683,15.224206 104.821892,15.971192 101.388420,16.644217 
	C98.826317,13.002599 94.703453,15.967201 91.314064,14.935666 
	C91.314064,27.203754 91.314064,39.033657 91.314064,50.691917 
	C94.701546,50.691917 97.769363,50.691917 100.999718,50.691917 
	C100.999718,45.091156 101.092934,39.795006 100.979988,34.503258 
	C100.756165,24.016663 105.073242,22.369011 112.953323,22.220127 
z"/>
<path fill="#FFFFFF" opacity="1.000000" stroke="none" 
	d="
M1.000000,3.416667 
	C9.725981,1.076644 14.161356,5.087391 17.212542,13.120212 
	C20.132509,20.807579 24.663809,27.882896 28.931620,36.081562 
	C34.707512,24.556528 40.010719,13.974668 45.422268,3.176635 
	C49.015060,3.176635 52.795406,3.176635 57.377026,3.176635 
	C56.467693,5.118896 55.784424,6.752610 54.960026,8.311700 
	C48.124908,21.238150 41.239712,34.138191 34.434307,47.080208 
	C33.316669,49.205658 32.809196,51.226707 29.424410,51.172829 
	C25.872322,51.116287 24.354822,49.552197 22.938711,46.754875 
	C17.711025,36.428356 12.377300,26.154179 6.956780,15.927460 
	C5.392378,12.975953 3.402877,10.249763 1.304133,7.710137 
	C1.000000,6.611111 1.000000,5.222222 1.000000,3.416667 
z"/>
<path fill="#FFFFFF" opacity="1.000000" stroke="none" 
	d="
M65.449982,53.000000 
	C64.686050,52.344925 64.482529,51.205147 64.042198,51.104836 
	C48.268841,47.511520 47.941254,27.663561 55.279625,19.619980 
	C60.682999,13.697339 68.174950,12.460009 75.853737,15.061223 
	C82.791435,17.411390 86.664963,22.317957 87.045731,29.835573 
	C87.141724,31.730911 87.789650,33.598293 88.254845,35.816605 
	C79.091743,35.816605 70.299538,35.816605 61.446121,35.816605 
	C63.522839,44.699230 69.285187,46.491249 75.873009,40.797165 
	C76.962410,39.855556 79.148270,40.076595 80.840828,39.966408 
	C82.811699,39.838112 84.797318,39.936470 87.111794,39.936470 
	C85.268898,46.332932 81.545181,49.978382 75.334724,51.054535 
	C74.639214,51.175053 74.048271,51.899075 73.704422,52.671616 
	C71.299988,53.000000 68.599968,53.000000 65.449982,53.000000 
M68.560226,28.999695 
	C71.298508,28.999695 74.036789,28.999695 77.278641,28.999695 
	C75.502655,24.405857 73.497772,21.207405 68.370140,21.999098 
	C64.520500,22.593473 62.726440,25.053608 61.673038,28.999695 
	C64.039986,28.999695 65.834557,28.999695 68.560226,28.999695 
z"/>
<path fill="#FFFFFF" opacity="1.000000" stroke="none" 
	d="
M166.449982,53.000000 
	C165.520523,52.333626 165.150635,51.216568 164.544922,51.069263 
	C156.882401,49.205822 153.272293,43.515385 152.167618,36.551033 
	C150.962601,28.954115 152.494705,21.458714 159.622284,17.059692 
	C170.051193,10.623153 185.921921,13.743178 188.016113,28.166964 
	C188.363647,30.560612 188.892136,32.927990 189.423630,35.770924 
	C180.510818,35.770924 172.081589,35.770924 163.652374,35.770924 
	C163.238449,36.168987 162.824539,36.567047 162.410614,36.965111 
	C163.878662,39.064907 164.924438,42.149311 166.925049,43.007309 
	C169.257950,44.007816 174.026993,44.133152 174.940216,42.767147 
	C178.091873,38.052944 181.979080,39.588722 185.932831,40.003242 
	C186.576492,40.070724 187.218155,40.157421 188.198914,40.276192 
	C186.743912,46.302689 182.513657,49.114079 177.333206,51.009056 
	C176.329956,51.376038 175.382172,51.894634 174.704407,52.671646 
	C172.299988,53.000000 169.599976,53.000000 166.449982,53.000000 
M177.790970,26.269535 
	C176.967758,25.455183 176.278809,24.226591 175.294998,23.907677 
	C172.797501,23.098091 169.883865,21.744175 167.672668,22.403978 
	C165.547684,23.038059 164.095291,25.926250 162.347351,27.823957 
	C167.630157,28.990931 172.059464,29.053705 176.481857,28.907104 
	C177.002441,28.889847 177.484894,27.722178 177.790970,26.269535 
z"/>
<path fill="#FFFFFF" opacity="1.000000" stroke="none" 
	d="
M128.449982,53.000000 
	C127.686607,52.345333 127.512215,51.249546 127.039474,51.100578 
	C115.538139,47.476364 112.015869,41.016361 113.877510,28.690376 
	C115.064484,20.831356 119.422272,16.784130 126.670151,14.770391 
	C133.849121,12.775799 140.250290,14.137319 145.506744,19.207474 
	C147.690201,21.313543 148.825150,24.506639 150.511139,27.329706 
	C148.190186,28.003954 146.525848,28.805620 144.820724,28.904591 
	C142.540985,29.036911 139.990829,29.870523 138.687531,26.463413 
	C137.452820,23.235582 134.684616,21.732130 131.002747,21.962181 
	C126.738289,22.228632 124.891792,25.492018 124.371284,28.585411 
	C123.776718,32.119061 124.231598,36.183666 125.496086,39.540844 
	C126.236847,41.507538 129.445282,43.693012 131.543930,43.693295 
	C133.876511,43.693607 137.208435,41.887260 138.350464,39.872684 
	C141.483414,34.346069 146.032455,38.265530 149.734192,36.911293 
	C150.173416,43.309898 145.748169,48.175629 139.280853,50.929985 
	C138.299438,51.347954 137.367859,51.882931 136.706619,52.681892 
	C134.299988,53.000000 131.599976,53.000000 128.449982,53.000000 
z"/>
<path fill="#FFFFFF" opacity="1.000000" stroke="none" 
	d="
M204.000000,50.531342 
	C200.521057,51.000000 197.042114,51.000000 193.281982,51.000000 
	C193.281982,35.059887 193.281982,19.327547 193.281982,2.808331 
	C196.581055,3.100035 199.912918,3.394638 203.622391,3.344621 
	C204.000000,18.687561 204.000000,34.375122 204.000000,50.531342 
z"/>
<path fill="#FFFFFF" opacity="1.000000" stroke="none" 
	d="
M112.670921,22.575500 
	C105.073242,22.369011 100.756165,24.016663 100.979988,34.503258 
	C101.092934,39.795006 100.999718,45.091156 100.999718,50.691917 
	C97.769363,50.691917 94.701546,50.691917 91.314064,50.691917 
	C91.314064,39.033657 91.314064,27.203754 91.314064,14.935666 
	C94.703453,15.967201 98.826317,13.002599 101.388420,16.644217 
	C104.821892,15.971192 108.632683,15.224206 112.953323,14.377279 
	C112.953323,17.652189 112.953323,19.936157 112.670921,22.575500 
z"/>
<path fill="#000000" opacity="1.000000" stroke="none" 
	d="
M68.094681,28.999695 
	C65.834557,28.999695 64.039986,28.999695 61.673038,28.999695 
	C62.726440,25.053608 64.520500,22.593473 68.370140,21.999098 
	C73.497772,21.207405 75.502655,24.405857 77.278641,28.999695 
	C74.036789,28.999695 71.298508,28.999695 68.094681,28.999695 
z"/>
<path fill="#000000" opacity="1.000000" stroke="none" 
	d="
M177.888000,26.678669 
	C177.484894,27.722178 177.002441,28.889847 176.481857,28.907104 
	C172.059464,29.053705 167.630157,28.990931 162.347351,27.823957 
	C164.095291,25.926250 165.547684,23.038059 167.672668,22.403978 
	C169.883865,21.744175 172.797501,23.098091 175.294998,23.907677 
	C176.278809,24.226591 176.967758,25.455183 177.888000,26.678669 
z"/>
</svg>